<?xml version="1.0" encoding="utf-8"?>
<!-- Generator: Adobe Illustrator 16.0.0, SVG Export Plug-In . SVG Version: 6.00 Build 0)  -->
<!DOCTYPE svg PUBLIC "-//W3C//DTD SVG 1.1//EN" "http://www.w3.org/Graphics/SVG/1.1/DTD/svg11.dtd">
<svg version="1.1" id="圖層_1" xmlns="http://www.w3.org/2000/svg" xmlns:xlink="http://www.w3.org/1999/xlink" x="0px" y="0px"
	 width="36.333px" height="61.537px" viewBox="0 0 36.333 61.537" enable-background="new 0 0 36.333 61.537" xml:space="preserve">
<path fill="#345C8D" d="M-89.256-30.836l-24.396-24.396l24.396-24.395c1.367-1.367,1.367-3.583,0-4.95
	c-1.367-1.367-3.583-1.367-4.95,0l-26.87,26.87c-1.367,1.367-1.367,3.583,0,4.949l26.87,26.87c1.367,1.367,3.583,1.367,4.95,0
	C-87.889-27.253-87.889-29.469-89.256-30.836z"/>
<path fill="#345C8D" d="M2.256,55.164l24.396-24.395L2.256,6.374c-1.367-1.367-1.367-3.583,0-4.95c1.367-1.367,3.583-1.367,4.95,0
	l26.87,26.87c1.367,1.367,1.367,3.583,0,4.95l-26.87,26.87c-1.367,1.367-3.583,1.367-4.95,0C0.89,58.747,0.89,56.531,2.256,55.164z"
	/>
<path fill="#345C8D" d="M-224.284-129.186h-262.348c-20.158,0-36.5-16.341-36.5-36.5c0-20.158,16.342-36.5,36.5-36.5h262.348
	c20.159,0,36.5,16.342,36.5,36.5C-187.784-145.527-204.125-129.186-224.284-129.186"/>
</svg>
