<?xml version="1.0" encoding="utf-8"?>
<!-- Generator: Adobe Illustrator 23.0.2, SVG Export Plug-In . SVG Version: 6.00 Build 0)  -->
<svg version="1.1" id="圖層_1" xmlns="http://www.w3.org/2000/svg" xmlns:xlink="http://www.w3.org/1999/xlink" x="0px" y="0px"
	 viewBox="0 0 283.5 283.5" style="enable-background:new 0 0 283.5 283.5;" xml:space="preserve">
<style type="text/css">
	.st0{fill:#ACC83D;}
	.st1{fill:#758D2F;}
	.st2{fill:#7FA72A;}
	.st3{fill:url(#SVGID_1_);}
	.st4{fill:url(#SVGID_2_);}
	.st5{fill:url(#SVGID_3_);}
	.st6{fill:url(#SVGID_4_);}
	.st7{fill:url(#SVGID_5_);}
	.st8{fill:url(#SVGID_6_);}
	.st9{fill:#CEE07D;}
	.st10{fill:#C8DD77;}
	.st11{fill:#EB7366;}
	.st12{fill:#40220F;}
	.st13{fill:url(#SVGID_7_);}
	.st14{fill:url(#SVGID_8_);}
</style>
<title>蔬菜</title>
<g>
	<g>
		<path class="st0" d="M219.3,146.8c4-5.2,4.7-12.2,1.7-18.1c-1-2-2.3-3.8-3.9-5.4c-1.4-4.5-5.4-8.1-10.2-9.7
			c0.3-2.4-0.3-4.9-1.7-6.9c-1.4-2-3.4-3.7-5.7-4.6c-1.2-2.3-2.8-4.3-4.8-6.1c-5.5-4.9-13.4-7.9-21.4-8.7c-3.4-0.9-6.9-1.2-10.3-0.9
			c-2.2-0.6-4.5-1-6.8-1.2c-1.7-0.4-3.5-0.6-5.3-0.7l-1.3-0.4c-0.8-1.2-1.7-2.3-2.7-3.4c-10.3-10.5-30.8-13.1-45.9-5.8
			c-6.8,3.3-11.2,8-13.2,13.1c-8.1,2.6-14.9,8-18.2,15.3c-1.5,3.2-2.1,6.7-1.9,10.2l0,0c-1,0.8-1.7,2-1.9,3.3
			c-1.4,0.8-2.6,1.9-3.5,3.3c-2.4,3.6-2.8,8.2-1.2,12.2c0.2,1.8,0.9,3.6,2,5.1c-1.5,2.8-2.3,6-2.3,9.2c0,1.3,0.1,2.5,0.3,3.8
			c-2.2,6.5,1.6,15,9.8,20.7c4.1,2.9,8.9,4.6,13.9,5c2.2,1.9,4.6,3.5,7.3,4.7c8.2,8.8,20.3,12.9,32.1,11c10.7,6.1,23.8,6.9,32.9,1.9
			c3.3-0.4,6.5-1.5,9.3-3.1c10.4,1.9,20.5-0.4,26.4-6.4c1.1-0.4,2.2-1,3.2-1.5c4.2-0.6,7.9-2.9,10.1-6.5c0.6-1,1-2.2,1.3-3.4
			c5.3-2.9,9.6-6.8,11.9-11.5C221.9,156.7,221.9,151.3,219.3,146.8z"/>
		<path class="st1" d="M219.2,146.8c0.6-0.9,1.2-1.9,1.6-2.8c1.4-2.9,1.9-6.1,1.5-9.2c-0.3-2.1-0.9-4.1-1.9-5.9
			c-1-1.8-2.3-3.5-3.8-5l-0.1-0.1l-0.1-0.2c-0.7-2.2-2-4.1-3.8-5.7c-1.7-1.5-3.8-2.7-6-3.4l-0.7-0.2l0.1-0.8
			c0.2-2.2-0.4-4.4-1.7-6.2c-1.3-1.8-3.1-3.3-5.2-4.1l-0.4-0.2l-0.2-0.4c-1.2-2.2-2.7-4.1-4.6-5.7c-1.9-1.6-4-3-6.2-4.2
			c-4.5-2.3-9.4-3.6-14.5-4.1h-0.1h-0.1c-3.2-0.8-6.5-1.1-9.9-0.8h-0.3l-0.3-0.1c-2.1-0.6-4.3-1-6.5-1.2H156
			c-1.7-0.4-3.4-0.6-5.1-0.7h-0.2h-0.2l-1.3-0.4l-0.5-0.2l-0.2-0.4c-1.6-2.4-3.6-4.5-5.9-6.1c-2.3-1.7-4.9-3.1-7.6-4.2
			c-5.5-2.1-11.4-3.1-17.3-2.9c-1.5,0-3,0.2-4.4,0.3c-1.5,0.1-2.9,0.4-4.4,0.8c-1.4,0.3-2.9,0.7-4.3,1.2c-0.7,0.2-1.4,0.5-2.1,0.8
			c-0.7,0.3-1.4,0.6-2,0.9c-2.7,1.3-5.1,3-7.3,5c-2.1,2-3.8,4.5-4.9,7.2l-0.1,0.2L88,88.4c-2.8,0.9-5.4,2.1-7.8,3.7
			c-2.4,1.5-4.6,3.4-6.4,5.6c-1.8,2.2-3.3,4.7-4.2,7.4c-1,2.7-1.3,5.5-1.1,8.4v0.2v0.2l-0.2,0.2c-0.9,0.7-1.4,1.8-1.6,2.9v0.3
			l-0.3,0.2c-2.4,1.4-4.1,3.7-4.8,6.4c-0.6,2.7-0.4,5.5,0.6,8.1v0.1v0.1c0.3,1.7,0.9,3.3,1.9,4.7l0.3,0.5l-0.3,0.5
			c-0.9,1.9-1.6,3.9-1.9,6c-0.3,2.1-0.2,4.2,0.2,6.3v0.3l-0.1,0.3c-0.8,2.9-0.6,6,0.7,8.8c0.6,1.4,1.4,2.8,2.4,4
			c0.9,1.3,1.9,2.4,3.1,3.5c4.6,4.4,10.5,7,16.7,7.5h0.5l0.4,0.3c2.1,1.8,4.4,3.2,6.9,4.3l0.3,0.1l0.2,0.2c3.9,4.1,8.7,7.2,14.1,9
			c5.3,1.9,11,2.4,16.6,1.4l0.6-0.1l0.5,0.3c4.8,2.7,10.1,4.4,15.6,4.9c5.4,0.6,10.9-0.4,15.8-2.8l0.3-0.1h0.2
			c3.1-0.4,6.1-1.3,8.8-2.8l0.4-0.2l0.5,0.1c4.5,0.9,9.1,0.9,13.5,0c4.4-0.7,8.6-2.7,11.9-5.8l0.2-0.2l0.2-0.1c1-0.4,2.1-0.9,3-1.4
			l0.2-0.1h0.2c2.5-0.3,4.9-1.3,6.9-2.9c2-1.5,3.4-3.7,3.9-6.1l0.1-0.4l0.3-0.2c2.3-1.2,4.5-2.6,6.4-4.3c2-1.7,3.6-3.7,5-5.9
			c1.3-2.2,2.1-4.8,2.2-7.3c0-1.3-0.1-2.6-0.4-3.9c-0.1-0.6-0.3-1.3-0.6-1.9c-0.1-0.3-0.2-0.6-0.4-0.9L219.2,146.8z M219.5,146.8
			c0.2,0.3,0.3,0.5,0.5,0.8c0.2,0.3,0.3,0.6,0.4,0.9c0.3,0.6,0.5,1.3,0.7,1.9c0.4,1.3,0.6,2.7,0.5,4c0,2.7-0.7,5.4-2,7.8
			c-1.3,2.4-2.9,4.6-4.9,6.4c-2,1.8-4.2,3.4-6.6,4.8l0.4-0.5c-0.3,1.4-0.8,2.8-1.5,4c-0.7,1.2-1.7,2.3-2.8,3.2
			c-2.2,1.8-4.9,3-7.7,3.5l0.4-0.1c-1.1,0.6-2.2,1.2-3.3,1.7l0.4-0.2c-1.8,1.8-3.8,3.2-6,4.3c-2.2,1.1-4.5,1.9-6.9,2.4
			c-4.8,1-9.7,1.1-14.5,0.2l0.9-0.2c-3,1.7-6.3,2.8-9.8,3.3l0.5-0.2c-2.7,1.5-5.5,2.5-8.5,3c-3,0.5-6,0.6-9,0.4
			c-6-0.5-11.8-2.3-17-5.2l1.1,0.2c-6.1,1.1-12.4,0.5-18.3-1.6c-5.9-2-11.1-5.4-15.3-10l0.5,0.4c-2.8-1.2-5.3-2.9-7.6-4.9l0.9,0.4
			c-6.9-0.6-13.5-3.6-18.4-8.5c-1.2-1.2-2.4-2.5-3.3-3.9c-1-1.4-1.8-3-2.5-4.6c-1.4-3.3-1.6-7.1-0.5-10.5v0.6
			c-0.8-4.7,0-9.5,2.2-13.6v1c-1.1-1.7-1.8-3.6-2-5.6v0.2c-1.1-2.9-1.2-6.1-0.4-9.1c0.4-1.5,1.1-2.9,2.1-4.1c1-1.2,2.2-2.3,3.5-3
			l-0.3,0.5c0.2-1.4,1-2.7,2.1-3.7l-0.2,0.3v0.1c-0.1-3,0.3-6,1.4-8.8c1-2.8,2.6-5.4,4.5-7.6c1.9-2.2,4.2-4.2,6.7-5.8
			c2.5-1.6,5.2-2.8,8-3.7l-0.3,0.3c1.1-2.9,2.9-5.5,5.1-7.6c2.2-2.1,4.7-3.9,7.4-5.3c2.7-1.4,5.6-2.5,8.5-3.3c1.5-0.5,3-0.7,4.5-1
			c1.5-0.3,3-0.4,4.6-0.5c6.2-0.4,12.3,0.4,18.2,2.5c2.9,1,5.7,2.5,8.3,4.2c2.6,1.8,4.9,4,6.7,6.7L150,83l1.4,0.4l-0.4-0.1
			c1.9,0.1,3.7,0.3,5.5,0.7h-0.2c2.4,0.1,4.8,0.5,7.1,1.2h-0.5c3.6-0.3,7.3,0,10.8,0.9h-0.2c5.4,0.5,10.6,2,15.4,4.4
			c2.4,1.3,4.6,2.8,6.7,4.6c2.1,1.8,3.8,4,5,6.5l-0.6-0.5c2.5,1.1,4.6,2.8,6.1,5c1.6,2.2,2.2,5,1.9,7.7l-0.6-1.1
			c2.4,0.8,4.7,2.2,6.5,3.9c1.9,1.8,3.3,4,4.1,6.5l-0.2-0.3c1.5,1.6,2.8,3.4,3.8,5.4c1,2,1.6,4.2,1.8,6.4c0.2,2.2-0.1,4.4-0.7,6.5
			C221.9,143.2,220.9,145.2,219.5,146.8L219.5,146.8z"/>
	</g>
	<g>
		<path class="st0" d="M88.7,100.4c-4.9,4.3-7.4,10.6-6.8,17.1c0.2,2,0.8,4,1.6,5.8c-0.2,4.4,1.9,8.7,5.5,11.2c-1,2.2-1.2,4.6-0.6,7
			c0.5,2.1,1.7,4,3.3,5.5c0.3,2.3,1,4.6,2.1,6.7c3.3,5.8,8.7,10.2,15.1,12.2c2.5,1.5,5.4,2.4,8.3,2.7c1.7,1,3.4,1.8,5.3,2.3
			c1.3,0.7,2.7,1.2,4.2,1.6c0.3,0.2,0.6,0.4,1,0.6c0.3,1.3,0.7,2.5,1.2,3.7c5.4,11.9,21.6,18.1,36.2,13.8c6-1.6,11.2-5.2,14.8-10.2
			c7.8-1.1,14.8-5.2,19.6-11.5c2.2-2.8,3.7-6.1,4.6-9.5l0,0c1.1-0.7,2-1.6,2.5-2.8c1.4-0.6,2.7-1.4,3.9-2.5c3-3.1,4.7-7.2,4.5-11.5
			c0.3-1.8,0.3-3.6-0.1-5.3c2.1-2.5,3.6-5.4,4.6-8.5c0.4-1.2,0.7-2.4,0.8-3.7c3.7-5.9,3.1-14.8-2-21.7c-2.5-3.5-6-6-10-7.3
			c-1.2-2.2-2.8-4.1-4.7-5.7c-4-9.9-13.6-16.4-23.4-16.3c-7-7.7-17.7-10.9-26.6-7.7c-2.9-0.1-5.8,0.3-8.6,1.3
			c-8-3.7-17.1-3.2-23.7,1.4c-1,0.2-2.1,0.5-3.1,0.9c-3.9-0.1-7.7,1.5-10.3,4.5c-0.8,0.9-1.5,1.9-2,3c-5.1,1.7-9.7,4.7-13.2,8.9
			C89.5,90.3,88,95.4,88.7,100.4z"/>
		<path class="st1" d="M88.8,100.4c-1.5,1.5-2.8,3.1-3.8,5c-1,1.8-1.8,3.7-2.2,5.7c-0.8,4-0.4,8.2,1.4,11.9v0.2v0.2
			c-0.1,4.2,1.9,8.1,5.3,10.4l0.6,0.4l-0.3,0.7c-0.8,1.9-1,4.1-0.5,6.1c0.5,2,1.5,3.8,3.1,5.2l0.3,0.3v0.4c0.6,4.2,2.6,8.2,5.7,11.1
			c1.5,1.5,3.2,2.9,5,4c1.8,1.1,3.8,2,5.8,2.7h0.1l0.1,0.1c2.4,1.4,5,2.2,7.8,2.5h0.3l0.2,0.2c1.6,1,3.2,1.7,5,2.2h0.1h0.1
			c1.3,0.6,2.6,1.2,3.9,1.6l0.2,0.1l0.2,0.1l0.9,0.6l0.4,0.3l0.1,0.5c0.5,2.5,1.6,4.8,3.1,6.9c1.5,2.1,3.3,4,5.3,5.5
			c2.1,1.5,4.4,2.8,6.8,3.8c2.4,0.9,5,1.6,7.5,2c2.6,0.3,5.2,0.4,7.8,0.2c2.6-0.3,5.2-0.8,7.7-1.7c5-1.7,9.3-4.9,12.5-9.2l0.1-0.2
			h0.2c2.8-0.4,5.5-1.2,8-2.3c2.5-1.2,4.9-2.7,7-4.5c2.1-1.8,4-3.9,5.5-6.3c1.5-2.3,2.6-4.9,3.2-7.6l0,0v-0.1l0,0V159l0.2-0.1
			c1-0.6,1.8-1.5,2.2-2.6l0.1-0.2l0.2-0.1c2.5-1.1,4.6-3,5.9-5.5c1.3-2.4,1.9-5.2,1.9-8v-0.2c0.3-1.6,0.2-3.3-0.2-4.9l-0.1-0.4
			l0.3-0.4c1.4-1.7,2.5-3.6,3.3-5.5c0.9-2,1.6-4,2-6.2v-0.2l0.1-0.2c1.4-2.4,2.1-5.1,2.1-7.9c0-2.8-0.6-5.6-1.7-8.2
			c-1.1-2.6-2.7-4.9-4.8-6.8c-2-1.9-4.4-3.4-7-4.2l-0.5-0.2l-0.3-0.5c-1.1-2-2.6-3.8-4.4-5.3l-0.2-0.2l-0.1-0.3
			c-1.8-4.4-4.9-8.2-8.8-11c-3.9-2.8-8.5-4.3-13.2-4.3h-0.7l-0.5-0.5c-3.1-3.5-7.1-6-11.5-7.5c-4.4-1.4-9.1-1.4-13.5,0l-0.3,0.1
			h-0.3c-2.7-0.2-5.5,0.2-8.1,1.2l-0.5,0.2l-0.5-0.2c-3.6-1.7-7.5-2.5-11.5-2.4c-4,0.1-7.8,1.3-11.1,3.5l-0.1,0.1l-0.2,0.1l-2.9,0.8
			l-0.2,0.1h-0.1c-2.4-0.1-4.7,0.5-6.8,1.7c-2.1,1.2-3.8,3-4.8,5.1l-0.2,0.3l-0.3,0.1c-4.9,1.5-9.2,4.3-12.7,8.1
			c-1.7,1.9-3,4.1-3.9,6.5C88.8,95.2,88.5,97.9,88.8,100.4z M88.6,100.3c-0.5-2.6-0.3-5.2,0.5-7.7c0.8-2.5,2.1-4.9,3.8-6.9
			c3.4-4.1,7.9-7.2,12.9-8.9l-0.4,0.4c2.4-5,7.5-8.2,13.1-8.2L118,69l3.2-1l-0.4,0.2c3.6-2.5,7.8-4,12.2-4.1
			c4.4-0.2,8.7,0.6,12.7,2.4h-1c2.9-1.1,6-1.6,9.1-1.5l-0.5,0.1c5-1.7,10.3-1.8,15.3-0.2c4.9,1.5,9.4,4.3,12.9,8.2l-1.1-0.5
			c5.4,0,10.6,1.8,15,4.9c4.4,3.1,7.7,7.5,9.7,12.4l-0.4-0.5c2,1.7,3.6,3.8,4.9,6.1l-0.8-0.6c3.1,1,5.9,2.6,8.2,4.8
			c2.2,2.2,4,4.8,5.3,7.7c1.2,2.9,1.9,6,1.8,9.2c0,3.2-1,6.3-2.6,9l0.2-0.4c-0.4,2.3-1.1,4.6-2,6.7c-1,2.1-2.3,4.1-3.8,5.8l0.2-0.8
			c0.4,1.9,0.4,3.8,0,5.7v-0.2c0,3-0.8,6-2.3,8.7c-1.5,2.7-3.9,4.8-6.7,5.9l0.4-0.4c-0.6,1.3-1.5,2.4-2.8,3.1l0.2-0.2l0,0v-0.1
			c-1.5,5.6-4.7,10.6-9.2,14.3c-2.2,1.8-4.6,3.4-7.3,4.6c-1.3,0.6-2.7,1.1-4,1.5c-1.4,0.4-2.8,0.7-4.2,0.9l0.3-0.2
			c-3.2,4.5-7.7,7.9-12.9,9.8c-2.6,0.9-5.2,1.6-7.9,2c-2.7,0.3-5.5,0.3-8.2,0.1c-2.7-0.3-5.4-0.9-8-1.8c-2.6-1-5.1-2.2-7.3-3.8
			c-4.7-3.2-8.1-8-9.5-13.5l0.5,0.7l-1-0.7l0.4,0.2c-1.5-0.4-3-1-4.4-1.7l0.2,0.1c-2-0.5-3.9-1.4-5.6-2.4l0.5,0.2
			c-3.1-0.3-6.1-1.3-8.8-2.8l0.2,0.1c-2.2-0.8-4.3-1.8-6.3-3c-2-1.2-3.8-2.7-5.4-4.4c-1.6-1.7-3-3.6-4.1-5.7
			c-1.1-2.1-1.8-4.4-2.1-6.8l0.4,0.7c-1.9-1.6-3.2-3.9-3.7-6.4c-0.5-2.4-0.2-5,0.8-7.2l0.3,1.1c-1.9-1.4-3.4-3.2-4.4-5.3
			c-1-2.1-1.5-4.4-1.3-6.7v0.3c-0.9-2-1.4-4.1-1.6-6.3c-0.2-2.2,0-4.3,0.6-6.4c0.8-3.1,2.3-6,4.5-8.4
			C86.9,101.7,87.7,101,88.6,100.3L88.6,100.3z"/>
	</g>
	<g>
		<path class="st2" d="M175.3,88.6c6.9,5.2,12.8,11.6,17.3,18.9c4.6,7.3,8,15.4,9.9,23.8c1,4.3,1.5,8.6,1.5,13
			c0,1.1-0.1,2.2-0.2,3.3c-0.1,1.1-0.2,2.2-0.4,3.3c-0.4,2.2-0.9,4.3-1.6,6.4c-1.5,4.2-3.8,8-6.7,11.3c-3,3.2-6.5,5.8-10.5,7.6
			l-0.1-0.2c3.5-2.4,6.6-5.3,9.1-8.6c2.5-3.3,4.4-7,5.6-10.9c2.4-8,2.8-16.4,1.2-24.6c-1.6-8.3-4.6-16.3-8.9-23.5
			c-4.2-7.4-9.7-14-16.2-19.4L175.3,88.6z"/>
		<path class="st2" d="M186.7,106.4c-0.8,0-1.5-0.3-2.1-0.8c-0.6-0.5-1-1.2-1.3-2c-0.3-0.7-0.4-1.5-0.4-2.3c0-0.8,0.2-1.5,0.6-2.2
			h0.1c0,0.7,0.1,1.4,0.1,2.1c0,0.7,0.1,1.4,0.2,2.1c0.1,0.7,0.4,1.3,0.9,1.8c0.5,0.5,1.1,0.9,1.8,1L186.7,106.4z"/>
		<path class="st2" d="M177.7,113.5c0.3-0.9,0.8-1.8,1.3-2.5c0.6-0.8,1.2-1.5,2-2.1c0.7-0.7,1.5-1.2,2.4-1.7
			c0.4-0.2,0.9-0.4,1.4-0.5c0.5-0.2,1-0.2,1.5-0.2v0.1c-0.8,0.4-1.6,0.9-2.4,1.4c-0.8,0.5-1.6,0.9-2.3,1.4c-0.8,0.5-1.5,1.2-2.1,1.9
			c-0.6,0.7-1.2,1.5-1.6,2.3L177.7,113.5z"/>
		<path class="st2" d="M178.8,106.4c-0.8,0-1.5-0.3-2.1-0.8c-0.6-0.5-1-1.2-1.2-2c-0.3-0.7-0.4-1.5-0.4-2.3c0-0.8,0.2-1.5,0.6-2.2
			h0.1c0,0.7,0.1,1.4,0.1,2.1c0,0.7,0.1,1.4,0.2,2.1c0.1,0.7,0.4,1.3,0.9,1.8c0.5,0.5,1.1,0.9,1.8,1V106.4z"/>
		<path class="st2" d="M168,113.6c0.1-1,0.5-2,1-2.8c0.5-0.8,1.2-1.6,2-2.2c0.8-0.6,1.6-1.1,2.6-1.5c0.9-0.4,1.9-0.6,3-0.5v0.1
			c-0.9,0.2-1.8,0.6-2.6,1c-0.8,0.5-1.6,1-2.3,1.6c-1.5,1.2-2.7,2.7-3.5,4.4L168,113.6z"/>
		<path class="st2" d="M163.8,109.9c2.3-1.4,4.8-2.6,7.4-3.4c2.6-0.8,5.4-1.3,8.2-1.3c2.8,0,5.5,0.6,8.1,1.6c1.3,0.5,2.5,1.2,3.6,2
			c0.6,0.4,1.1,0.8,1.6,1.3c0.5,0.4,0.9,1,1.2,1.6c-0.1-0.3-0.3-0.6-0.6-0.8c-0.2-0.2-0.5-0.5-0.8-0.7c-0.5-0.4-1.1-0.8-1.7-1.2
			c-1.1-0.7-2.4-1.3-3.6-1.7c-2.5-0.9-5.2-1.4-7.9-1.4c-2.7,0-5.4,0.3-7.9,1.1C168.8,107.8,166.3,108.7,163.8,109.9z"/>
		<path class="st2" d="M187,97.1c0-0.4-0.1-0.7-0.2-1.1c-0.2-0.3-0.4-0.6-0.6-0.8c-0.3-0.2-0.6-0.4-0.9-0.6c-0.3-0.2-0.6-0.4-1-0.6
			c0.4-0.1,0.8,0,1.2,0.1c0.4,0.1,0.8,0.3,1.1,0.6c0.4,0.3,0.6,0.7,0.7,1.2C187.3,96.3,187.3,96.7,187,97.1z"/>
		<path class="st2" d="M192.4,94.3c-0.5,0.1-1,0.3-1.4,0.4c-0.4,0.2-0.9,0.4-1.3,0.6c-0.4,0.2-0.8,0.5-1.3,0.7
			c-0.4,0.3-0.8,0.5-1.2,0.8c0.2-0.5,0.5-0.9,0.9-1.3c0.4-0.4,0.8-0.7,1.3-0.9C190.3,94.2,191.4,94.1,192.4,94.3z"/>
		<path class="st2" d="M188.7,93.2c0-0.4-0.1-0.7-0.2-1.1c-0.2-0.3-0.4-0.5-0.6-0.8c-0.3-0.2-0.6-0.4-0.9-0.6
			c-0.3-0.2-0.6-0.4-1-0.6c0.4-0.1,0.8,0,1.2,0.1c0.4,0.1,0.8,0.3,1.1,0.6c0.4,0.3,0.6,0.7,0.7,1.2C189,92.5,188.9,92.9,188.7,93.2z
			"/>
		<path class="st2" d="M194.6,89.6c-0.5,0.2-1,0.3-1.4,0.4c-0.4,0.2-0.9,0.4-1.3,0.6c-0.4,0.2-0.8,0.5-1.3,0.7
			c-0.4,0.3-0.8,0.5-1.2,0.8c0.2-0.5,0.5-0.9,0.9-1.3c0.4-0.4,0.8-0.7,1.3-0.9C192.5,89.5,193.6,89.4,194.6,89.6z"/>
		<path class="st2" d="M193.7,86.7l-1.5,1.5c-0.5,0.5-1,1-1.4,1.6c-0.9,1.1-1.6,2.3-2.2,3.6c-0.6,1.3-0.9,2.7-1.1,4.1
			c-0.1,0.7-0.1,1.4,0,2.1c0,0.7,0.2,1.4,0.5,2.1c-0.8-1.3-1.1-2.7-1-4.2c0.1-1.5,0.4-3,1-4.3c0.6-1.3,1.4-2.6,2.5-3.7
			c0.5-0.5,1-1,1.6-1.5C192.5,87.6,193.1,87.1,193.7,86.7z"/>
		<path class="st2" d="M192.1,139.9c-1.2-0.6-2.2-1.6-2.8-2.8c-0.5-1.3-0.6-2.7-0.3-4c0.4-2,1.2-3.9,2.5-5.4c0.4-0.5,0.9-1,1.5-1.4
			v0.1c-0.7,1-1.4,2.2-1.9,3.3c-0.6,1.1-1.1,2.3-1.5,3.5c-0.4,1.2-0.4,2.5,0,3.7c0.5,1.2,1.3,2.2,2.4,2.9L192.1,139.9z"/>
		<path class="st2" d="M172.6,145.3c1.4-1.2,3-2.1,4.7-2.9c1.7-0.8,3.5-1.3,5.3-1.8c1.8-0.4,3.6-0.7,5.5-0.7c0.9,0,1.9,0,2.8,0.1
			c0.9,0.1,1.9,0.3,2.7,0.6v0.1c-0.9-0.1-1.8-0.2-2.7-0.1c-0.9,0-1.8,0-2.7,0.1c-1.8,0.1-3.6,0.3-5.4,0.5c-1.8,0.3-3.5,0.8-5.2,1.5
			c-1.7,0.7-3.3,1.6-4.8,2.6L172.6,145.3z"/>
		<path class="st2" d="M180.6,133.4c-1.2-0.6-2.2-1.6-2.8-2.8c-0.5-1.3-0.6-2.7-0.3-4c0.2-1.3,0.7-2.6,1.4-3.8
			c0.3-0.6,0.7-1.1,1.2-1.6c0.4-0.5,0.9-1,1.5-1.4v0.1c-0.7,1.1-1.4,2.2-1.9,3.3c-0.6,1.1-1.1,2.3-1.5,3.5c-0.4,1.2-0.3,2.5,0.1,3.7
			C178.7,131.6,179.5,132.6,180.6,133.4L180.6,133.4z"/>
		<path class="st2" d="M163.3,139.7c0.6-0.7,1.4-1.3,2.1-1.8c0.8-0.5,1.6-1,2.4-1.4c1.7-0.8,3.5-1.4,5.3-1.8
			c1.8-0.3,3.7-0.5,5.6-0.5c1.9,0,3.7,0.3,5.5,1v0.1c-0.9-0.2-1.8-0.4-2.7-0.4c-0.9,0-1.8,0-2.7,0c-1.8,0.1-3.6,0.3-5.4,0.7
			c-1.8,0.4-3.5,0.9-5.2,1.6c-1.7,0.7-3.2,1.6-4.7,2.7L163.3,139.7z"/>
		<path class="st2" d="M151.7,129c5.1-0.4,10.2-0.3,15.3,0.3c5.1,0.6,10.1,1.9,14.8,3.9c4.8,2,9.1,4.8,12.9,8.3
			c1.8,1.8,3.5,3.8,4.9,5.9c0.7,1.1,1.3,2.2,1.8,3.4c0.3,0.6,0.5,1.2,0.7,1.8c0.2,0.6,0.3,1.2,0.2,1.9c0.1-0.6,0-1.3-0.3-1.8
			c-0.2-0.6-0.5-1.2-0.8-1.7c-0.6-1.1-1.2-2.2-2-3.2c-1.5-2.1-3.1-4-5-5.7c-3.7-3.4-8-6.1-12.7-8c-4.7-1.9-9.6-3.3-14.6-4
			C161.9,129.3,156.8,129,151.7,129z"/>
		<path class="st2" d="M203.1,126.3c0.4-0.5,0.6-1.2,0.7-1.8c0-0.6-0.1-1.2-0.4-1.8c-0.3-0.6-0.6-1.2-1-1.7
			c-0.4-0.6-0.8-1.1-1.3-1.6c0.7,0.2,1.3,0.6,1.8,1.2c0.5,0.5,1,1.1,1.3,1.8c0.4,0.7,0.5,1.5,0.3,2.3
			C204.2,125.3,203.8,125.9,203.1,126.3z"/>
		<path class="st2" d="M214.8,126c-0.9-0.2-1.9-0.4-2.8-0.5c-0.9-0.1-1.9-0.1-2.8-0.1c-0.9,0-1.9,0.1-2.8,0.2
			c-1,0.1-1.9,0.3-2.8,0.5c0.8-0.6,1.7-1,2.7-1.2c1-0.2,1.9-0.4,2.9-0.4c1,0,2,0.1,3,0.3C213,125,213.9,125.4,214.8,126z"/>
		<path class="st2" d="M209.4,121.5c0.4-0.5,0.6-1.2,0.7-1.8c0-0.6-0.1-1.2-0.4-1.8c-0.3-0.6-0.6-1.2-1-1.7
			c-0.4-0.6-0.8-1.1-1.3-1.6c0.7,0.2,1.3,0.6,1.8,1.2c0.5,0.5,1,1.1,1.3,1.8c0.3,0.7,0.4,1.5,0.3,2.3
			C210.5,120.5,210,121.1,209.4,121.5z"/>
		<path class="st2" d="M222.7,120.2c-0.9-0.2-1.9-0.4-2.8-0.5c-0.9-0.1-1.9-0.1-2.8-0.1c-0.9,0-1.9,0.1-2.8,0.2
			c-1,0.1-1.9,0.3-2.8,0.5c0.8-0.6,1.7-1,2.7-1.2c1-0.2,1.9-0.4,2.9-0.4c1,0,2,0.1,3,0.3C220.9,119.3,221.8,119.7,222.7,120.2z"/>
		<path class="st2" d="M223.7,115c-2.6,0.7-5.2,1.5-7.7,2.5c-2.5,1-4.8,2.3-7,3.9c-2.2,1.5-4.1,3.4-5.6,5.6c-0.8,1.1-1.4,2.3-2,3.5
			c-0.3,0.6-0.5,1.2-0.7,1.9c-0.1,0.3-0.2,0.6-0.2,1c-0.1,0.3-0.1,0.7,0,1c-0.1-0.3-0.2-0.7-0.1-1c0-0.3,0.1-0.7,0.1-1
			c0.1-0.7,0.3-1.3,0.5-2c0.5-1.3,1.1-2.5,1.8-3.7c1.5-2.3,3.4-4.3,5.7-5.9c2.2-1.6,4.7-2.9,7.2-3.8C218.3,116,221,115.4,223.7,115z
			"/>
		<path class="st2" d="M173.3,130.6c-1.3,0.3-2.7,0.2-3.9-0.4c-1.2-0.7-2.2-1.7-2.8-2.9c-0.7-1.2-1.1-2.5-1.3-3.8
			c-0.1-0.7-0.2-1.3-0.1-2c0-0.7,0.1-1.4,0.3-2h0.1c0.1,1.3,0.3,2.6,0.6,3.8c0.3,1.2,0.6,2.5,1.1,3.6c0.5,1.2,1.3,2.2,2.3,2.9
			c1.1,0.6,2.4,0.9,3.7,0.6L173.3,130.6z"/>
		<path class="st2" d="M195.7,157.8c-0.4-0.5-0.7-1.1-0.7-1.8c0-0.7,0.2-1.3,0.6-1.8c0.4-0.5,0.8-1,1.3-1.4c0.5-0.4,1.1-0.7,1.7-0.8
			l0,0c-0.5,0.3-1,0.7-1.5,1.1c-0.5,0.4-0.9,0.8-1.3,1.3c-0.4,0.5-0.6,1.1-0.7,1.7C195.1,156.6,195.3,157.2,195.7,157.8L195.7,157.8
			z"/>
		<path class="st2" d="M186.1,156.5c0.9-0.2,1.7-0.4,2.6-0.4c0.9,0,1.8,0.1,2.7,0.2c0.9,0.1,1.7,0.4,2.6,0.7
			c0.8,0.3,1.6,0.8,2.3,1.4l0,0c-0.7-0.4-1.5-0.8-2.3-1c-0.8-0.3-1.6-0.6-2.5-0.8C189.6,156.2,187.9,156.2,186.1,156.5L186.1,156.5z
			"/>
		<path class="st2" d="M191.8,152.7c-0.4-0.5-0.7-1.1-0.7-1.8c0-0.7,0.2-1.3,0.6-1.8c0.3-0.5,0.8-1,1.3-1.4c0.5-0.4,1.1-0.7,1.7-0.8
			l0,0c-0.5,0.3-1,0.7-1.5,1.2c-0.5,0.4-0.9,0.8-1.3,1.3c-0.4,0.5-0.6,1-0.7,1.6C191.3,151.6,191.5,152.2,191.8,152.7L191.8,152.7z"
			/>
		<path class="st2" d="M183.1,152.2c0.8-0.3,1.7-0.5,2.6-0.6c0.9,0,1.8,0,2.7,0.2c0.9,0.2,1.7,0.5,2.6,0.9c0.8,0.3,1.6,0.8,2.2,1.5
			l0,0c-0.7-0.5-1.5-0.9-2.3-1.2c-0.8-0.3-1.7-0.6-2.5-0.7C186.6,151.8,184.8,151.8,183.1,152.2L183.1,152.2z"/>
		<path class="st2" d="M179.9,145.3c4.7,1.5,9,4.1,12.5,7.6c1.7,1.8,3.1,3.8,4.1,6.1c0.5,1.1,0.8,2.3,1.1,3.5
			c0.1,0.6,0.1,1.2,0.2,1.8c0,0.3,0,0.6,0,0.9c0,0.3-0.1,0.6-0.3,0.9c0.2-0.3,0.2-0.6,0.2-0.9c0-0.3,0-0.6,0-0.9
			c0-0.6-0.1-1.2-0.3-1.8c-0.3-1.2-0.7-2.3-1.2-3.4c-1-2.2-2.4-4.2-4.1-5.9c-1.7-1.7-3.6-3.3-5.7-4.5
			C184.3,147.3,182.1,146.2,179.9,145.3z"/>
		<path class="st2" d="M203.1,153.9c0.3-0.2,0.5-0.4,0.6-0.7c0.1-0.3,0.2-0.6,0.2-0.9c0-0.3-0.1-0.6-0.1-0.9
			c-0.1-0.3-0.2-0.6-0.3-0.9c0.5,0.5,0.8,1.2,0.8,1.9c0,0.4-0.1,0.7-0.3,1C203.8,153.7,203.4,153.9,203.1,153.9z"/>
		<path class="st2" d="M208.3,156c-0.7-0.6-1.5-1-2.3-1.4c-0.4-0.2-0.9-0.3-1.3-0.4c-0.4-0.1-0.9-0.2-1.3-0.3c0.5-0.1,0.9-0.1,1.4,0
			c0.5,0.1,0.9,0.2,1.4,0.4C207,154.6,207.7,155.2,208.3,156z"/>
		<path class="st2" d="M206.7,153c0.3-0.2,0.5-0.4,0.6-0.7c0.1-0.3,0.2-0.6,0.2-0.9c0-0.3,0-0.6-0.1-0.9c-0.1-0.3-0.2-0.6-0.3-0.9
			c0.5,0.5,0.8,1.2,0.8,1.9c0,0.4-0.1,0.7-0.3,1.1C207.4,152.8,207.1,153,206.7,153z"/>
		<path class="st2" d="M212.8,155c-0.7-0.6-1.5-1-2.3-1.3c-0.4-0.2-0.9-0.3-1.3-0.4c-0.4-0.1-0.9-0.2-1.3-0.3c0.5-0.1,0.9-0.1,1.4,0
			c0.5,0.1,0.9,0.2,1.4,0.4C211.5,153.6,212.3,154.2,212.8,155z"/>
		<path class="st2" d="M214.3,152.9l-1.9-0.2c-0.6,0-1.3-0.1-1.9-0.1c-1.3,0-2.6,0.1-3.8,0.4c-1.2,0.3-2.4,0.7-3.5,1.4
			c-0.5,0.3-1.1,0.7-1.5,1.2c-0.5,0.4-0.9,0.9-1.1,1.5c0.5-1.2,1.3-2.3,2.5-2.9c1.1-0.7,2.3-1.2,3.6-1.5c1.3-0.3,2.6-0.4,3.9-0.3
			c0.7,0,1.3,0.2,1.9,0.2L214.3,152.9z"/>
		<path class="st2" d="M189.1,150.1c-0.6-0.1-1.2-0.4-1.7-0.9c-0.4-0.5-0.6-1.2-0.7-1.8c-0.1-0.6,0-1.3,0.1-1.9
			c0.1-0.6,0.4-1.2,0.8-1.7l0,0c-0.2,0.6-0.3,1.2-0.4,1.8c-0.1,0.6-0.2,1.2-0.2,1.8c0,0.6,0.2,1.2,0.5,1.7
			C187.9,149.6,188.5,149.9,189.1,150.1L189.1,150.1z"/>
	</g>
	<g>
		
			<linearGradient id="SVGID_1_" gradientUnits="userSpaceOnUse" x1="-1614.5723" y1="-472.6709" x2="-1605.1313" y2="-472.6709" gradientTransform="matrix(-2.96 -2.98 -0.68 1.06 -4891.7866 -4133.105)">
			<stop  offset="0" style="stop-color:#007B38"/>
			<stop  offset="0.13" style="stop-color:#0B803B"/>
			<stop  offset="0.36" style="stop-color:#298C42"/>
			<stop  offset="0.67" style="stop-color:#59A04F"/>
			<stop  offset="0.83" style="stop-color:#76AC56"/>
		</linearGradient>
		<path class="st3" d="M210.5,175.7c3.7-3.6-0.9-9.1-8.4-16.7c-7.4-7.7-21.1-6.1-24.7-3c-3.5,3.1,11.8,2.5,19.2,8.1
			C205.3,170.4,206.8,179.3,210.5,175.7z"/>
		
			<linearGradient id="SVGID_2_" gradientUnits="userSpaceOnUse" x1="-2264.519" y1="-85.5236" x2="-2255.335" y2="-85.5236" gradientTransform="matrix(-0.7839 -0.6589 -1.452 1.5322 -1680.6582 -1185.0099)">
			<stop  offset="0" style="stop-color:#007B38"/>
			<stop  offset="0.13" style="stop-color:#0B803B"/>
			<stop  offset="0.36" style="stop-color:#298C42"/>
			<stop  offset="0.67" style="stop-color:#59A04F"/>
			<stop  offset="0.83" style="stop-color:#76AC56"/>
		</linearGradient>
		<path class="st4" d="M209.5,167.7c2.8-2.8,6.6-3.7,8.5-1.8c1.8,1.8,1,5.6-1.9,8.4c-2.8,2.8-6.6,3.7-8.5,1.8
			C205.8,174.4,206.7,170.6,209.5,167.7z"/>
	</g>
	<g>
		
			<linearGradient id="SVGID_3_" gradientUnits="userSpaceOnUse" x1="120.8968" y1="48.633" x2="152.4601" y2="48.633" gradientTransform="matrix(0.9996 -3.019010e-02 -3.019010e-02 -0.9996 2.6543 249.0258)">
			<stop  offset="1.000000e-02" style="stop-color:#007B38"/>
			<stop  offset="4.000000e-02" style="stop-color:#1E8840"/>
			<stop  offset="8.000000e-02" style="stop-color:#3E9548"/>
			<stop  offset="0.12" style="stop-color:#579F4E"/>
			<stop  offset="0.16" style="stop-color:#68A652"/>
			<stop  offset="0.21" style="stop-color:#73AB55"/>
			<stop  offset="0.26" style="stop-color:#76AC56"/>
			<stop  offset="0.34" style="stop-color:#8CB85F"/>
			<stop  offset="0.44" style="stop-color:#A3C569"/>
			<stop  offset="0.55" style="stop-color:#B4CE70"/>
			<stop  offset="0.68" style="stop-color:#BED374"/>
			<stop  offset="0.83" style="stop-color:#C1D575"/>
		</linearGradient>
		<path class="st5" d="M152.9,173.9c-51.1,14.6-23.2,44.5-23.2,44.5"/>
		
			<linearGradient id="SVGID_4_" gradientUnits="userSpaceOnUse" x1="-1328.4902" y1="1027.3289" x2="-1319.2946" y2="1027.3289" gradientTransform="matrix(9.547605e-02 -0.8685 1.7287 9.078830e-02 -1524.2704 -1024.8687)">
			<stop  offset="0" style="stop-color:#007B38"/>
			<stop  offset="0.13" style="stop-color:#0B803B"/>
			<stop  offset="0.36" style="stop-color:#298C42"/>
			<stop  offset="0.67" style="stop-color:#59A04F"/>
			<stop  offset="0.83" style="stop-color:#76AC56"/>
		</linearGradient>
		<path class="st6" d="M119.5,215.6c0-2.2,2.7-3.9,6.1-3.9c3.3,0.1,5.9,1.9,5.9,4.1c0,2.2-2.7,3.9-6.1,3.9
			C122.1,219.7,119.5,217.8,119.5,215.6z"/>
	</g>
	<g>
		
			<linearGradient id="SVGID_5_" gradientUnits="userSpaceOnUse" x1="156.1758" y1="197.1398" x2="184.3777" y2="197.1398" gradientTransform="matrix(0.996 8.906957e-02 8.906957e-02 -0.996 -13.9889 381.7911)">
			<stop  offset="8.000000e-02" style="stop-color:#007B38"/>
			<stop  offset="0.26" style="stop-color:#00823C"/>
			<stop  offset="0.28" style="stop-color:#08853D"/>
			<stop  offset="0.44" style="stop-color:#3A9645"/>
			<stop  offset="0.59" style="stop-color:#62A44B"/>
			<stop  offset="0.72" style="stop-color:#7EAE4F"/>
			<stop  offset="0.84" style="stop-color:#8FB452"/>
			<stop  offset="0.93" style="stop-color:#95B653"/>
			<stop  offset="0.99" style="stop-color:#A3BD69"/>
		</linearGradient>
		<path class="st7" d="M184.2,217.1c2.6-4.8,10.1-31.3-23.7-33.7C160.6,183.5,180.4,221.8,184.2,217.1z"/>
		
			<linearGradient id="SVGID_6_" gradientUnits="userSpaceOnUse" x1="-1471.7202" y1="-858.6431" x2="-1459.4398" y2="-858.6431" gradientTransform="matrix(-0.1463 -0.6251 -1.2721 0.2151 -1119.4199 -511.4367)">
			<stop  offset="0" style="stop-color:#007B38"/>
			<stop  offset="0.17" style="stop-color:#268B42"/>
			<stop  offset="0.38" style="stop-color:#4C9A4B"/>
			<stop  offset="0.54" style="stop-color:#63A451"/>
			<stop  offset="0.64" style="stop-color:#6CA753"/>
		</linearGradient>
		<path class="st8" d="M185.5,210.7c3.1-0.5,5.9,0.9,6.2,3c0.3,2.1-1.9,4.2-5,4.7c-3.1,0.5-5.9-0.9-6.2-3
			C180.1,213.3,182.4,211.1,185.5,210.7z"/>
	</g>
	<g>
		<path class="st9" d="M77.7,127.9c-10.3-9.9,12.1-53.7,40.9-60.4c24-5.6,60.9,0.1,68.4,44.8C186.9,112.4,88,137.8,77.7,127.9z"/>
		<path class="st2" d="M77.6,128c-1.3-1.3-2.1-3-2.3-4.9c-0.3-1.8-0.3-3.6-0.1-5.4c0.4-3.6,1.3-7.2,2.6-10.6
			c2.6-6.9,6.1-13.3,10.5-19.2c4.4-5.9,9.7-11.1,15.9-15.2c3.1-2,6.4-3.7,9.9-4.9c3.5-1.1,7.1-1.9,10.8-2.3c7.3-0.8,14.6-0.5,21.8,1
			c3.6,0.7,7.1,1.8,10.4,3.2c3.4,1.4,6.6,3.2,9.6,5.3c6,4.3,10.9,9.9,14.5,16.4c3.4,6.5,5.8,13.5,7,20.7l0.2,1.1l-1.1,0.3
			c-9,2.3-18,4.6-27.1,6.7s-18.2,4-27.3,5.7c-9.1,1.7-18.4,2.9-27.7,3.8c-4.7,0.4-9.3,0.7-14,0.8c-2.3,0-4.7-0.1-7-0.3
			c-1.2-0.1-2.4-0.3-3.5-0.6C79.5,129.3,78.5,128.7,77.6,128z M77.8,127.8c0.9,0.7,1.9,1.2,3,1.4c1.1,0.3,2.3,0.5,3.4,0.5
			c2.3,0.2,4.6,0.2,6.9,0.1c4.7-0.2,9.2-0.8,13.8-1.5c9.2-1.4,18.2-3.3,27.3-5.1s18.2-3.8,27.2-5.8c9.1-2,18.1-4.1,27.1-6.3
			l-0.9,1.4c-1.1-7-3.2-13.9-6.3-20.3c-3.2-6.4-7.8-12-13.4-16.4c-5.8-4.3-12.5-7.2-19.6-8.5c-7.1-1.3-14.3-1.4-21.4-0.2
			c-3.5,0.5-7,1.4-10.3,2.6c-3.3,1.3-6.4,2.9-9.3,4.9c-5.9,4-11.1,8.9-15.6,14.5c-4.6,5.5-8.4,11.6-11.3,18.2
			c-1.5,3.3-2.5,6.8-3,10.3c-0.3,1.8-0.3,3.6,0,5.4C75.7,124.8,76.5,126.5,77.8,127.8z"/>
	</g>
	<g>
		<g>
			<path class="st10" d="M195.2,147.1c2.9-5.5,3.2-12.1,0.9-17.9c-0.8-1.8-1.8-3.5-3.1-4.9c-1-4-4-7.3-7.9-8.6
				c0.2-2.3-0.3-4.6-1.5-6.6c-1-1.8-2.6-3.2-4.4-4c-0.9-2-2.2-3.9-3.8-5.5c-4.4-4.3-10.2-6.7-16.4-6.6c-2.6-0.6-5.2-0.5-7.8,0.1
				c-1.7-0.4-3.4-0.6-5.2-0.5c-1.3-0.2-2.7-0.3-4-0.2l-1-0.3c-0.6-1.1-1.3-2.1-2.1-3c-8-9.3-23.6-10-34.8-1.6
				c-4.7,3.5-8.1,8.4-9.7,14C88,105,83.3,111,81.1,118.1c-1,3.3-1.4,6.7-1.2,10.2l0,0c-0.8,1-1.2,2.2-1.3,3.4
				c-1.1,1-1.9,2.2-2.6,3.5c-1.7,3.8-1.9,8.1-0.5,12c0.2,1.7,0.7,3.4,1.6,4.9c-1,3-1.6,6.1-1.5,9.3c0,1.2,0.1,2.4,0.3,3.6
				c-1.5,6.6,1.6,14.6,7.9,19.4c3,2.4,6.8,3.7,10.6,3.7c1.6,1.6,3.5,2.9,5.6,3.9c6.3,7.9,16.2,10.9,24.5,7.8
				c8.2,5,18.2,4.6,24.9-1.1c2.6-0.8,4.9-2.1,7-3.9c7.7,1.1,15.4-2.3,19.9-8.6c0.8-0.5,1.6-1.1,2.3-1.8c3.4-1.2,6.2-3.9,7.5-7.3
				c0.4-1.1,0.7-2.2,0.9-3.4c4-3.3,7-7.5,8.7-12.4C197.5,156.6,197.2,151.5,195.2,147.1z"/>
			<path class="st2" d="M195.1,147.1c0.8-1.8,1.5-3.8,1.8-5.8c0.3-2,0.4-4,0.2-5.9c-0.4-3.9-2.1-7.6-4.7-10.6l-0.1-0.1v-0.2
				c-0.5-1.9-1.5-3.6-2.8-5c-1.3-1.4-2.9-2.4-4.7-3l-0.7-0.2l0.1-0.8c0.1-2-0.3-4-1.3-5.7c-0.9-1.7-2.4-3.1-4.1-3.9l-0.4-0.2
				l-0.2-0.4c-1.7-3.6-4.4-6.5-7.9-8.4c-3.5-1.9-7.3-2.9-11.3-2.9H159h-0.1c-2.4-0.5-4.9-0.5-7.3,0.1l-0.3,0.1l-0.3-0.1
				c-1.6-0.4-3.2-0.6-4.8-0.5H146h-0.1c-1.2-0.2-2.5-0.3-3.8-0.2h-0.2h-0.2l-0.9-0.3l-0.5-0.2l-0.2-0.4c-0.6-1-1.2-2-1.9-2.9
				c-0.8-0.9-1.6-1.7-2.5-2.4c-1.8-1.5-3.9-2.7-6.1-3.5c-2.2-0.8-4.6-1.3-7-1.4c-2.4-0.1-4.8,0.1-7.1,0.6c-2.4,0.5-4.6,1.3-6.8,2.3
				c-1.1,0.5-2.1,1.2-3.1,1.8c-1,0.7-2,1.4-2.9,2.2c-3.7,3.2-6.4,7.4-7.7,12.1v0.2l-0.2,0.1c-2.4,1.3-4.5,2.8-6.4,4.7
				c-1.8,1.9-3.4,4.1-4.7,6.4c-1.2,2.3-2.2,4.8-2.7,7.4c-0.6,2.6-0.7,5.2-0.5,7.8v0.3l-0.1,0.1c-0.7,0.9-1.1,1.9-1.2,3.1v0.3
				l-0.2,0.2c-1.9,1.9-3.1,4.3-3.5,7c-0.4,2.6-0.1,5.3,0.7,7.9v0.2c0.2,1.6,0.8,3.1,1.6,4.4l0.2,0.4l-0.1,0.4
				c-0.7,2-1.1,4.1-1.2,6.2c-0.1,1-0.1,2.1,0,3.1l0.3,3.1v0.2v0.2c-0.5,2.6-0.4,5.2,0.4,7.7c1.5,5.1,5,9.4,9.6,11.9
				c2.3,1.2,4.8,1.8,7.4,1.8h0.6l0.4,0.4c1.5,1.5,3.3,2.7,5.2,3.6l0.3,0.1l0.2,0.3c2.7,3.4,6.3,5.9,10.4,7.3c4,1.4,8.5,1.4,12.5,0
				l0.7-0.2l0.6,0.4c3.6,2.2,7.7,3.3,11.9,3.3c4.2-0.1,8.2-1.5,11.4-4.2l0.2-0.2l0.3-0.1c2.4-0.7,4.6-1.9,6.5-3.5l0.4-0.4l0.6,0.1
				c3.6,0.5,7.2,0,10.5-1.4c3.3-1.4,6.2-3.7,8.3-6.6l0.1-0.1l0.2-0.2l2.3-1.7l0.2-0.2h0.1c2.1-0.7,3.9-2,5.3-3.7
				c1.4-1.8,2.3-3.9,2.6-6.1v-0.3l0.2-0.2c3.8-3,6.8-7,8.6-11.6c0.9-2.3,1.4-4.7,1.4-7.1C196.5,151.9,196,149.4,195.1,147.1z
				 M195.3,147.1c1.1,2.2,1.8,4.7,1.8,7.2c0.1,2.5-0.3,5.1-1.2,7.5c-1.7,4.8-4.6,9.1-8.5,12.4l0.3-0.5c-0.3,2.5-1.2,5-2.7,7
				c-1.5,2.1-3.7,3.7-6.1,4.6l0.4-0.2l-2.5,1.9l0.3-0.3c-2.2,3.4-5.4,6-9.1,7.6c-3.7,1.6-7.7,2.2-11.7,1.8l1-0.3
				c-2.1,1.9-4.7,3.3-7.4,4.2l0.5-0.3c-3.7,3.1-8.3,4.8-13.1,5c-4.8,0.1-9.4-1.1-13.5-3.6l1.3,0.1c-4.7,1.6-9.8,1.6-14.5,0
				c-4.6-1.6-8.7-4.5-11.7-8.4l0.5,0.4c-2.2-1-4.3-2.4-6-4.2l1,0.4c-3,0-6-0.7-8.7-2.2c-2.6-1.4-4.9-3.4-6.8-5.7
				c-1.8-2.3-3.2-5-4-7.9c-0.8-2.9-0.9-5.9-0.3-8.9v0.4l-0.3-3.4c-0.1-1.1,0-2.3,0.1-3.4c0.2-2.3,0.7-4.5,1.5-6.6l0.1,0.8
				c-0.9-1.6-1.5-3.4-1.6-5.2v0.2c-0.9-2.8-1-5.8-0.5-8.6c0.5-2.9,1.9-5.6,4.1-7.6l-0.2,0.4c0.1-1.3,0.6-2.6,1.5-3.7l-0.1,0.3v0.1
				c-0.3-5.5,0.9-11,3.6-15.8c1.3-2.4,2.9-4.6,4.9-6.5c1.9-2,4.1-3.6,6.5-5l-0.2,0.3c1.3-4.9,4-9.3,7.8-12.7
				c0.9-0.9,1.9-1.6,2.9-2.3c1-0.7,2.1-1.4,3.2-2c2.2-1.2,4.6-2.1,7-2.7c2.5-0.6,5-0.9,7.6-0.9c2.6,0.1,5.1,0.5,7.6,1.3
				c5,1.6,9.3,5,11.9,9.5l-0.7-0.6l1.1,0.3h-0.4c1.4-0.1,2.9,0,4.3,0.2h-0.2c1.9-0.1,3.7,0.1,5.6,0.5h-0.6c2.7-0.7,5.6-0.7,8.4-0.1
				h-0.2c4.4,0,8.6,1.2,12.4,3.4c3.8,2.2,6.9,5.5,8.7,9.5l-0.6-0.5c2.2,1,4,2.7,5.1,4.9c1.1,2.1,1.6,4.5,1.3,6.8l-0.6-1
				c2.1,0.7,4,1.9,5.4,3.6c1.4,1.6,2.4,3.6,3,5.7l0-0.4c1.3,1.6,2.4,3.4,3.2,5.4c0.7,1.9,1.2,4,1.3,6.1c0.1,2.1,0,4.1-0.5,6.1
				C197.1,143.4,196.3,145.3,195.3,147.1L195.3,147.1z"/>
		</g>
		<g>
			<path class="st10" d="M128.5,101.9c-27.2,26.7-37,83.4,2.5,99.4"/>
			<path class="st2" d="M128.6,102c-6.7,7-12,15.2-15.7,24.2c-3.8,8.8-6.1,18.2-6.7,27.8c-0.6,9.5,1.1,18.9,5.1,27.5
				c2,4.2,4.8,8.1,8.1,11.4c3.5,3.3,7.4,6.1,11.7,8.3c0.1,0,0.1,0.1,0.1,0.2c0,0,0,0,0,0c0,0.1-0.1,0.1-0.2,0.1
				c-4.7-1.4-9.2-3.8-13-6.9c-3.9-3.2-7.1-7.2-9.5-11.6c-2.3-4.5-3.8-9.3-4.5-14.3c-0.7-4.9-0.8-9.9-0.3-14.9
				c0.9-9.8,3.6-19.4,7.8-28.3c4.2-8.9,9.9-16.9,17-23.7c0.1-0.1,0.2-0.1,0.2,0C128.8,101.8,128.8,101.9,128.6,102L128.6,102z"/>
		</g>
		<g>
			<path class="st2" d="M118,123.6c0.8-0.2,1.5-0.7,1.9-1.4c0.4-0.7,0.7-1.4,0.7-2.2c0-0.8,0-1.6-0.1-2.4c0-0.8-0.1-1.6-0.2-2.5h0.1
				c0.6,0.7,0.9,1.5,1.1,2.3c0.1,0.9,0.1,1.8-0.1,2.6c-0.2,0.9-0.6,1.7-1.2,2.3C119.7,123.2,118.9,123.6,118,123.6L118,123.6z"/>
			<path class="st2" d="M129.3,130.5c-0.6-0.9-1.4-1.7-2.2-2.4c-0.8-0.7-1.7-1.3-2.6-1.8c-0.9-0.5-2-0.8-2.9-1.3c-1-0.4-2-0.8-3-1.2
				v-0.1c0.6-0.1,1.2-0.1,1.7,0c0.6,0.1,1.1,0.2,1.6,0.4c1.1,0.4,2.1,0.9,3,1.5c0.9,0.6,1.8,1.3,2.6,2.1
				C128.2,128.6,128.8,129.5,129.3,130.5L129.3,130.5z"/>
			<path class="st2" d="M127,122.4c0.8-0.2,1.5-0.7,1.9-1.4c0.5-0.7,0.7-1.4,0.7-2.2c0-0.8,0-1.6-0.1-2.3c0-0.8-0.1-1.6-0.2-2.5h0.1
				c0.6,0.7,0.9,1.5,1.1,2.3c0.1,0.9,0.1,1.8-0.1,2.6c-0.2,0.9-0.6,1.7-1.2,2.3C128.6,122,127.8,122.4,127,122.4L127,122.4z"/>
			<path class="st2" d="M140.4,129.2c-0.9-0.8-1.7-1.4-2.5-2.1c-0.8-0.6-1.7-1.2-2.6-1.7c-0.9-0.6-1.8-1-2.8-1.5
				c-0.5-0.2-0.9-0.5-1.4-0.7c-0.5-0.3-1-0.5-1.5-0.7v-0.1c1.1,0.1,2.2,0.3,3.2,0.7c1,0.4,2,0.8,3,1.4c0.9,0.6,1.8,1.2,2.6,2
				c0.8,0.8,1.5,1.6,2,2.6L140.4,129.2z"/>
			<path class="st2" d="M144.8,124.3c-3-0.9-6-1.6-9.1-2c-3.1-0.4-6.2-0.4-9.3,0c-3.1,0.4-6,1.3-8.8,2.7c-1.4,0.7-2.7,1.5-3.9,2.5
				c-0.6,0.5-1.2,1-1.8,1.5c-0.3,0.3-0.5,0.6-0.8,0.9c-0.3,0.3-0.5,0.6-0.6,1c0.2-0.8,0.6-1.5,1.2-2c0.5-0.6,1.1-1.2,1.6-1.7
				c1.2-1.1,2.5-2,3.9-2.8c2.8-1.6,5.9-2.6,9-3c3.2-0.4,6.4-0.3,9.5,0.3C138.9,122,141.9,123,144.8,124.3z"/>
		</g>
		<g>
			<path class="st2" d="M116.2,113.1c-0.3-0.4-0.5-0.9-0.5-1.4c0.1-0.5,0.3-1,0.6-1.4c0.3-0.3,0.7-0.6,1.2-0.8
				c0.4-0.2,0.9-0.3,1.4-0.3c-0.4,0.3-0.7,0.6-1,0.8c-0.3,0.3-0.6,0.5-0.9,0.9C116.4,111.5,116.1,112.3,116.2,113.1z"/>
			<path class="st2" d="M109.7,110.8c0.6-0.2,1.2-0.4,1.8-0.3c0.6,0,1.2,0.1,1.8,0.3c0.6,0.2,1.1,0.5,1.6,0.8
				c0.5,0.3,0.9,0.8,1.2,1.3c-0.5-0.3-1-0.5-1.5-0.8c-0.5-0.2-1-0.4-1.5-0.6C111.9,111.2,110.8,110.9,109.7,110.8z"/>
			<path class="st2" d="M113.7,109.1c-0.4-0.4-0.5-0.9-0.5-1.4c0.1-0.5,0.3-1,0.6-1.4c0.3-0.4,0.7-0.6,1.2-0.9
				c0.4-0.2,0.9-0.3,1.4-0.3c-0.4,0.3-0.7,0.6-1,0.8c-0.3,0.3-0.6,0.6-0.9,0.9C113.9,107.4,113.6,108.2,113.7,109.1z"/>
			<path class="st2" d="M106.5,105.8c0.6-0.2,1.2-0.3,1.8-0.3c0.6,0,1.2,0.1,1.8,0.3c0.6,0.2,1.1,0.5,1.6,0.8
				c0.5,0.3,0.9,0.8,1.2,1.3c-0.5-0.3-1-0.5-1.5-0.8c-0.5-0.2-1-0.4-1.6-0.6C108.7,106.2,107.6,105.9,106.5,105.8z"/>
			<path class="st2" d="M107,102.4c1.5,0.7,3,1.6,4.3,2.7c1.3,1.1,2.4,2.4,3.3,3.8c0.9,1.5,1.5,3.1,1.8,4.8c0.1,0.8,0.2,1.7,0.1,2.5
				c0,0.4-0.1,0.8-0.2,1.3c-0.1,0.4-0.2,0.8-0.5,1.2c0.3-0.8,0.4-1.6,0.3-2.4c0-0.8-0.1-1.6-0.3-2.4c-0.4-1.6-1-3.1-1.9-4.5
				c-0.9-1.4-1.9-2.6-3.1-3.8C109.7,104.4,108.4,103.4,107,102.4z"/>
		</g>
		<g>
			<path class="st2" d="M116.8,162.4c1.2-0.9,2-2.2,2.3-3.6c0.3-1.4,0.1-2.9-0.5-4.2c-0.6-1.3-1.3-2.6-2.2-3.8
				c-0.8-1.2-1.7-2.4-2.7-3.5v-0.1c1.4,0.7,2.6,1.8,3.5,3c0.9,1.2,1.7,2.6,2.1,4.1c0.6,1.5,0.6,3.1,0.2,4.7
				c-0.5,1.5-1.5,2.7-2.8,3.6L116.8,162.4z"/>
			<path class="st2" d="M139.9,165.9c-1.9-1-3.8-1.7-5.8-2.3c-2-0.5-4.1-0.8-6.2-0.9c-2.1-0.1-4.2,0-6.3,0.2c-1.1,0-2.1,0.2-3.1,0.3
				c-0.5,0-1,0.1-1.6,0.2c-0.5,0.1-1,0.2-1.5,0.3l-0.1-0.1c0.9-0.6,2-0.9,3-1.2c1-0.3,2.1-0.4,3.2-0.6c2.1-0.2,4.3-0.2,6.4,0
				c2.1,0.2,4.2,0.6,6.3,1.2c2,0.7,4,1.5,5.8,2.7L139.9,165.9z"/>
			<path class="st2" d="M129,153.4c1.2-0.9,2-2.2,2.3-3.6c0.3-1.4,0.1-2.9-0.5-4.2c-0.6-1.3-1.3-2.6-2.2-3.8
				c-0.8-1.2-1.7-2.4-2.7-3.5v-0.1c1.4,0.7,2.6,1.8,3.5,3c1,1.2,1.7,2.6,2.1,4.1c0.6,1.5,0.6,3.1,0.2,4.7c-0.5,1.5-1.5,2.7-2.8,3.6
				L129,153.4z"/>
			<path class="st2" d="M149.7,158.1c-1-0.3-2-0.8-3-1c-1-0.3-2-0.6-3-0.8c-2-0.4-4.1-0.7-6.1-0.9c-2.1-0.2-4.1-0.2-6.2-0.1
				c-1,0-2.1,0.1-3.1,0.2c-1,0-2.1,0.2-3.1,0.4l-0.1-0.1c1-0.4,2-0.7,3.1-0.9c1.1-0.2,2.1-0.3,3.2-0.4c2.1-0.2,4.2-0.2,6.4-0.1
				c2.1,0.2,4.2,0.5,6.3,1.1C146,156.1,147.9,156.9,149.7,158.1L149.7,158.1z"/>
			<path class="st2" d="M161.5,144.2c-5.8,0.7-11.5,1.8-17.2,3.4c-5.6,1.5-11,3.8-16.1,6.7c-2.5,1.4-4.9,3.1-7.2,4.9
				c-2.2,1.8-4.3,3.9-6.2,6.1c-1.9,2.2-3.5,4.6-4.9,7.2c-0.7,1.3-1.3,2.6-1.8,4c-0.3,0.7-0.5,1.4-0.6,2.1c-0.2,0.7-0.3,1.4-0.1,2.1
				c-0.2-0.3-0.2-0.7-0.2-1.1c0-0.4,0.1-0.7,0.1-1.1c0.1-0.7,0.3-1.4,0.5-2.1c0.4-1.4,1-2.8,1.6-4.1c1.3-2.6,2.9-5.1,4.7-7.4
				c3.8-4.6,8.3-8.4,13.5-11.3c5.1-2.9,10.6-5.1,16.4-6.6C149.8,145.4,155.6,144.5,161.5,144.2z"/>
			<path class="st2" d="M102.2,148.7c-0.8-0.3-1.5-0.9-1.8-1.7c-0.3-0.8-0.3-1.8,0-2.6c0.2-0.8,0.6-1.5,1.2-2.2
				c0.5-0.7,1.1-1.2,1.9-1.6c-0.5,0.6-0.9,1.3-1.3,2c-0.4,0.7-0.7,1.3-0.9,2.1c-0.2,0.7-0.3,1.4-0.2,2.1
				C101.3,147.4,101.7,148.1,102.2,148.7z"/>
			<path class="st2" d="M88.7,150.1c1.8-1.5,4-2.3,6.3-2.5c1.1-0.1,2.3-0.1,3.4,0.1c1.1,0.1,2.2,0.4,3.3,1c-1.1-0.1-2.2-0.2-3.3-0.2
				c-1.1,0-2.2,0-3.3,0.2C92.9,148.7,90.8,149.2,88.7,150.1z"/>
			<path class="st2" d="M94.2,144.2c-0.8-0.3-1.5-0.9-1.8-1.7c-0.3-0.8-0.3-1.8,0-2.6c0.3-0.8,0.6-1.5,1.2-2.2
				c0.5-0.7,1.1-1.2,1.9-1.6c-0.5,0.6-0.9,1.3-1.3,2c-0.4,0.7-0.7,1.3-0.9,2.1c-0.2,0.7-0.3,1.4-0.2,2.1
				C93.4,143,93.7,143.7,94.2,144.2z"/>
			<path class="st2" d="M78.8,144.7c1.8-1.5,4-2.3,6.3-2.5c1.1-0.1,2.3-0.1,3.4,0c1.1,0.1,2.3,0.4,3.3,1c-1.1-0.1-2.2-0.2-3.3-0.2
				c-1.1,0-2.2,0-3.3,0.2c-1.1,0.1-2.2,0.3-3.2,0.5C80.9,143.9,79.9,144.3,78.8,144.7z"/>
			<path class="st2" d="M76.9,139c3.1,0,6.3,0.3,9.3,1c3.1,0.7,6.1,1.8,8.8,3.2c2.8,1.5,5.3,3.5,7.4,5.8c1,1.2,1.9,2.5,2.6,3.9
				c0.3,0.7,0.6,1.4,0.9,2.2c0.1,0.4,0.2,0.8,0.3,1.2c0.1,0.4,0.1,0.8,0,1.2c0.1-0.4,0-0.8-0.1-1.2c-0.1-0.4-0.2-0.7-0.4-1.1
				c-0.3-0.7-0.7-1.4-1.1-2c-0.8-1.3-1.8-2.6-2.8-3.7c-2.1-2.2-4.6-4.1-7.3-5.5c-2.7-1.5-5.6-2.6-8.6-3.4
				C83,139.9,80,139.3,76.9,139z"/>
			<path class="st2" d="M137,149.1c1.5,0,2.9-0.4,4.1-1.3c1.1-0.9,1.9-2.2,2.3-3.6c0.4-1.4,0.6-2.9,0.7-4.3c0.2-1.5,0.2-3,0.2-4.4
				h0.1c0.6,1.4,0.8,3,0.8,4.5c-0.1,1.6-0.4,3.1-1,4.5c-0.5,1.5-1.5,2.8-2.8,3.7c-1.3,0.8-2.9,1.1-4.4,1L137,149.1z"/>
		</g>
		<g>
			<path class="st2" d="M115.4,183.4c0.3-0.6,0.5-1.3,0.4-2c-0.1-0.7-0.5-1.3-1-1.8c-0.5-0.5-1.1-0.9-1.7-1.3
				c-0.6-0.4-1.2-0.7-1.9-1l0,0c0.7,0.1,1.5,0.3,2.1,0.7c0.7,0.4,1.2,0.8,1.7,1.4c0.5,0.5,0.9,1.2,1,2
				C116,182.1,115.8,182.8,115.4,183.4L115.4,183.4z"/>
			<path class="st2" d="M126.2,180.5c-2-0.1-4,0.2-5.9,0.9c-0.9,0.4-1.8,0.8-2.7,1.3c-0.9,0.4-1.8,0.9-2.6,1.5l0,0
				c0.7-0.8,1.5-1.4,2.4-1.9c0.9-0.5,1.8-0.9,2.8-1.2c1-0.3,2-0.5,3-0.7C124.2,180.3,125.2,180.4,126.2,180.5L126.2,180.5z"/>
			<path class="st2" d="M119,177c0.3-0.6,0.5-1.3,0.4-2c-0.2-0.7-0.5-1.3-1-1.8c-1.1-0.9-2.2-1.7-3.5-2.3l0,0
				c0.7,0.1,1.5,0.3,2.1,0.7c0.7,0.4,1.2,0.8,1.7,1.4c0.5,0.6,0.9,1.2,1,2C119.7,175.7,119.5,176.4,119,177L119,177z"/>
			<path class="st2" d="M129.1,175.2c-1,0-2,0.1-3,0.3c-1,0.2-1.9,0.5-2.9,0.8c-0.9,0.3-1.9,0.7-2.8,1.2c-0.5,0.2-0.9,0.4-1.3,0.7
				c-0.5,0.2-0.9,0.5-1.3,0.8l0,0c0.7-0.7,1.6-1.3,2.5-1.8c0.9-0.5,1.8-0.9,2.8-1.2C125,175.2,127.1,175,129.1,175.2L129.1,175.2z"
				/>
			<path class="st2" d="M131.6,166.9c-2.4,1.4-4.8,2.9-6.9,4.7c-2.2,1.7-4.2,3.7-5.8,6c-1.7,2.2-3,4.7-3.8,7.4
				c-0.4,1.3-0.7,2.7-0.8,4.1c-0.1,0.7-0.1,1.4,0,2.1c0,0.3,0.1,0.7,0.1,1c0,0.3,0.2,0.7,0.4,1c-0.2-0.3-0.4-0.6-0.4-0.9
				c-0.1-0.3-0.1-0.7-0.2-1c-0.1-0.7-0.1-1.4-0.1-2.1c0.1-1.4,0.3-2.8,0.7-4.2c0.8-2.7,2.1-5.3,3.8-7.5c1.7-2.3,3.7-4.3,6-6
				C126.7,169.6,129.1,168.1,131.6,166.9z"/>
			<path class="st2" d="M106.3,180.1c-0.4,0-0.9-0.1-1.2-0.4c-0.3-0.3-0.5-0.7-0.5-1.2c0-0.4,0-0.8,0.1-1.2c0.1-0.4,0.3-0.7,0.5-1
				c-0.1,0.4-0.2,0.8-0.2,1.2c0,0.4,0,0.7,0,1.1c0,0.3,0.1,0.7,0.3,1C105.7,179.7,106,179.9,106.3,180.1z"/>
			<path class="st2" d="M100.7,183.2c0.2-0.5,0.6-0.9,1-1.3c0.4-0.4,0.8-0.7,1.3-1c0.5-0.3,1-0.5,1.5-0.6c0.5-0.2,1.1-0.2,1.6-0.2
				c-0.5,0.1-1,0.3-1.5,0.5c-0.5,0.2-1,0.4-1.4,0.7c-0.5,0.2-0.9,0.5-1.3,0.8C101.5,182.5,101.1,182.8,100.7,183.2z"/>
			<path class="st2" d="M102,179.6c-0.4,0-0.9-0.1-1.2-0.4c-0.3-0.3-0.5-0.7-0.5-1.2c0-0.4,0-0.8,0.1-1.2c0.1-0.4,0.3-0.7,0.5-1.1
				c-0.1,0.4-0.2,0.7-0.2,1.1c0,0.4,0,0.7,0,1.1c0,0.3,0.1,0.7,0.3,1C101.4,179.2,101.7,179.4,102,179.6z"/>
			<path class="st2" d="M95.3,182.7c0.2-0.5,0.6-0.9,1-1.3c0.4-0.4,0.8-0.7,1.3-1c0.5-0.3,1-0.5,1.5-0.6c0.5-0.2,1.1-0.2,1.6-0.2
				c-0.5,0.1-1,0.3-1.5,0.5c-0.5,0.2-1,0.4-1.4,0.7c-0.5,0.2-0.9,0.5-1.3,0.8C96.1,182,95.7,182.3,95.3,182.7z"/>
			<path class="st2" d="M93.3,180.6c1.4-0.6,2.8-1,4.3-1.3c1.5-0.3,3-0.4,4.5-0.3c1.5,0.1,3,0.5,4.4,1.2c0.7,0.3,1.3,0.7,1.9,1.2
				c0.6,0.5,1.1,1.1,1.4,1.8c-0.3-0.7-0.9-1.2-1.5-1.6c-0.6-0.4-1.2-0.8-1.9-1.1c-1.3-0.6-2.8-0.9-4.3-1.1c-1.5-0.1-2.9-0.1-4.4,0.1
				C96.2,179.7,94.8,180.1,93.3,180.6z"/>
			<path class="st2" d="M121.8,173.6c0.7-0.3,1.2-0.7,1.6-1.3c0.3-0.6,0.4-1.3,0.4-2c-0.1-0.7-0.3-1.4-0.5-2c-0.2-0.7-0.5-1.3-0.8-2
				l0,0c0.5,0.5,0.9,1.2,1.2,1.9c0.3,0.7,0.4,1.4,0.4,2.2c0.1,0.8-0.1,1.5-0.5,2.2C123.1,173.1,122.4,173.5,121.8,173.6L121.8,173.6
				z"/>
		</g>
	</g>
	<g>
		<path class="st11" d="M164.7,149.8c-2.7,0.1-5-3.2-5-3.2s2.1-3.4,4.8-3.5c2.1,0.2,4,1.4,5,3.2
			C168.6,148.3,166.8,149.6,164.7,149.8z"/>
		<path class="st12" d="M165,149.4c-1.9,0-3.6-1.6-4.6-3.1v0.3c0.9-1.5,2.7-3.4,4.6-3c1.3,0.3,2.4,1.1,3.2,2.1
			c0.2,0.2,0.4,0.5,0.5,0.8c0,0.1-0.1,0.1-0.1,0.2c-0.1,0.2-0.2,0.4-0.4,0.5C167.6,148.4,166.4,149.2,165,149.4
			c-0.4,0-0.7,0.1-1,0.4c-0.2,0.3,0.1,0.5,0.4,0.4c1.8-0.1,3.5-0.9,4.7-2.2c0.4-0.4,0.8-0.9,1.1-1.4c0.2-0.3,0.1-0.7-0.1-1
			c-0.8-1.2-2-2.2-3.4-2.7c-1.7-0.5-3.6-0.2-5,0.9c-1,0.7-1.9,1.6-2.5,2.7c-0.1,0.1-0.1,0.2,0,0.3c1.2,1.7,3.2,3.4,5.4,3.4
			c0.4,0,0.7-0.1,1-0.4C165.5,149.6,165.3,149.4,165,149.4z"/>
	</g>
	<g>
		<circle class="st12" cx="143.3" cy="139.4" r="4.1"/>
		<path class="st12" d="M133.5,136.3c-0.2-0.8-0.2-1.6,0.2-2.3c0.4-0.7,0.9-1.3,1.5-1.8c2.5-2,5.8-2.7,8.9-1.9
			c0.8,0.2,1.5,0.6,2.1,1c0.6,0.5,1.1,1.2,1.2,2c-0.7-1.3-2-2.1-3.5-2.2c-1.4-0.2-2.9-0.1-4.3,0.2c-1.4,0.3-2.7,0.8-4,1.6
			C134.5,133.5,133.6,134.8,133.5,136.3z"/>
	</g>
	<g>
		<circle class="st12" cx="183.4" cy="139.4" r="4.1"/>
		<path class="st12" d="M177.2,133.3c0.1-0.8,0.5-1.5,1.1-2c0.6-0.5,1.3-0.9,2.1-1.1c3.1-0.8,6.4-0.2,9,1.6c0.6,0.5,1.2,1.1,1.6,1.8
			c0.4,0.7,0.5,1.6,0.3,2.3c-0.1-1.4-1-2.7-2.3-3.3c-1.2-0.7-2.6-1.2-4-1.5c-1.4-0.3-2.9-0.3-4.3-0.1
			C179.2,131.1,177.9,132,177.2,133.3z"/>
	</g>
	<g>
		
			<linearGradient id="SVGID_7_" gradientUnits="userSpaceOnUse" x1="-1283.1145" y1="1262.4863" x2="-1273.6735" y2="1262.4863" gradientTransform="matrix(0.1 -4.2001 1.23 0.31 -1313.5083 -5585.0908)">
			<stop  offset="0" style="stop-color:#007B38"/>
			<stop  offset="0.13" style="stop-color:#0B803B"/>
			<stop  offset="0.36" style="stop-color:#298C42"/>
			<stop  offset="0.67" style="stop-color:#59A04F"/>
			<stop  offset="0.83" style="stop-color:#76AC56"/>
		</linearGradient>
		<path class="st13" d="M108.6,195.2c-5.2-0.1-5.6-7.2-5.4-17.9c0.2-10.7,11.2-19,15.9-19.2c4.7-0.2-6.8,10-8.4,19.1
			C108.9,187.8,113.8,195.3,108.6,195.2z"/>
		
			<linearGradient id="SVGID_8_" gradientUnits="userSpaceOnUse" x1="-1310.8384" y1="852.5886" x2="-1301.6427" y2="852.5886" gradientTransform="matrix(0.1168 -1.0073 2.2477 0.1197 -1654.9386 -1226.3151)">
			<stop  offset="0" style="stop-color:#007B38"/>
			<stop  offset="0.13" style="stop-color:#0B803B"/>
			<stop  offset="0.36" style="stop-color:#298C42"/>
			<stop  offset="0.67" style="stop-color:#59A04F"/>
			<stop  offset="0.83" style="stop-color:#76AC56"/>
		</linearGradient>
		<path class="st14" d="M100.9,193.3c0.1-2.6,3.6-4.6,7.9-4.5s7.7,2.3,7.6,4.9s-3.6,4.6-7.9,4.5C104.2,198,100.8,195.8,100.9,193.3z
			"/>
	</g>
</g>
</svg>
