<?xml version="1.0" encoding="utf-8"?>
<!-- Generator: Adobe Illustrator 23.0.2, SVG Export Plug-In . SVG Version: 6.00 Build 0)  -->
<svg version="1.1" id="圖層_1" xmlns="http://www.w3.org/2000/svg" xmlns:xlink="http://www.w3.org/1999/xlink" x="0px" y="0px"
	 viewBox="0 0 283.5 283.5" style="enable-background:new 0 0 283.5 283.5;" xml:space="preserve">
<style type="text/css">
	.st0{fill:none;stroke:url(#SVGID_1_);stroke-width:4.1199;stroke-miterlimit:10;}
	.st1{fill:url(#SVGID_2_);}
	.st2{fill:none;stroke:url(#SVGID_3_);stroke-width:4.2717;stroke-miterlimit:10;}
	.st3{fill:url(#SVGID_4_);}
	.st4{fill:none;stroke:url(#SVGID_5_);stroke-width:3.8749;stroke-miterlimit:10;}
	.st5{fill:url(#SVGID_6_);}
	.st6{fill:none;stroke:url(#SVGID_7_);stroke-width:3.8749;stroke-miterlimit:10;}
	.st7{fill:url(#SVGID_8_);}
	.st8{fill:#F39D43;}
	.st9{fill:#F0862A;}
	.st10{fill:#DF7018;}
	.st11{fill:#D56D1D;}
	.st12{fill:#E9504E;stroke:#FFFFFF;stroke-width:2.334247e-02;stroke-miterlimit:10;}
	.st13{fill:#E9504E;}
	.st14{fill:#FDEBE5;}
	.st15{fill:#A62324;}
	.st16{fill:#FCE3DB;}
	.st17{fill:#9E2424;}
	.st18{fill:url(#SVGID_9_);}
	.st19{fill:url(#SVGID_10_);}
	.st20{fill:#8EA82D;}
	.st21{fill:#2A4B26;}
	.st22{fill:#274125;}
	.st23{fill:#3E663B;}
	.st24{fill:#537350;}
	.st25{fill:#7D191E;}
</style>
<title>蔬菜</title>
<g>
	<g>
		
			<linearGradient id="SVGID_1_" gradientUnits="userSpaceOnUse" x1="-197.2416" y1="335.3706" x2="-197.2416" y2="385.2535" gradientTransform="matrix(0.91 0.41 0.41 -0.91 151.805 623.8043)">
			<stop  offset="2.000000e-02" style="stop-color:#B54E0F"/>
			<stop  offset="0.1" style="stop-color:#C8661F"/>
			<stop  offset="0.21" style="stop-color:#DB7E2F"/>
			<stop  offset="0.32" style="stop-color:#E88F3A"/>
			<stop  offset="0.43" style="stop-color:#F09A41"/>
			<stop  offset="0.57" style="stop-color:#F39D43"/>
			<stop  offset="0.79" style="stop-color:#F29B42"/>
			<stop  offset="0.86" style="stop-color:#EC943D"/>
			<stop  offset="0.92" style="stop-color:#E38936"/>
			<stop  offset="0.96" style="stop-color:#D6782B"/>
			<stop  offset="1" style="stop-color:#C6631D"/>
		</linearGradient>
		<path class="st0" d="M145.1,201.9c-66.8-6.5-34.5,35-34.5,35"/>
		
			<linearGradient id="SVGID_2_" gradientUnits="userSpaceOnUse" x1="-937.7269" y1="661.613" x2="-928.5533" y2="661.613" gradientTransform="matrix(-0.1151 -0.9062 1.7033 -0.3087 -1127.7396 -403.7201)">
			<stop  offset="2.000000e-02" style="stop-color:#B54E0F"/>
			<stop  offset="9.000000e-02" style="stop-color:#C8661F"/>
			<stop  offset="0.17" style="stop-color:#DB7E2F"/>
			<stop  offset="0.26" style="stop-color:#E88F3A"/>
			<stop  offset="0.35" style="stop-color:#F09A41"/>
			<stop  offset="0.47" style="stop-color:#F39D43"/>
		</linearGradient>
		<path class="st1" d="M105.7,233.8c3.2-0.7,6.2,0.6,6.7,2.8c0.5,2.3-1.7,4.7-4.9,5.4s-6.2-0.6-6.7-2.8
			C100.3,236.9,102.5,234.5,105.7,233.8z"/>
	</g>
	<g>
		
			<linearGradient id="SVGID_3_" gradientUnits="userSpaceOnUse" x1="-1333.5219" y1="-203.2816" x2="-1333.5219" y2="-159.1644" gradientTransform="matrix(-1 0.39 -0.36 -0.93 -1250.5024 568.7811)">
			<stop  offset="2.000000e-02" style="stop-color:#B54E0F"/>
			<stop  offset="0.1" style="stop-color:#C8661F"/>
			<stop  offset="0.21" style="stop-color:#DB7E2F"/>
			<stop  offset="0.32" style="stop-color:#E88F3A"/>
			<stop  offset="0.43" style="stop-color:#F09A41"/>
			<stop  offset="0.57" style="stop-color:#F39D43"/>
			<stop  offset="0.79" style="stop-color:#F29B42"/>
			<stop  offset="0.86" style="stop-color:#EC943D"/>
			<stop  offset="0.92" style="stop-color:#E38936"/>
			<stop  offset="0.96" style="stop-color:#D6782B"/>
			<stop  offset="1" style="stop-color:#C6631D"/>
		</linearGradient>
		<path class="st2" d="M128.4,203.3c52.9-0.8,25.6,33.3,25.6,33.3"/>
		
			<linearGradient id="SVGID_4_" gradientUnits="userSpaceOnUse" x1="-767.3681" y1="-75.0841" x2="-758.2529" y2="-75.0841" gradientTransform="matrix(0.1223 -0.9625 -1.7481 -0.2057 119.8439 -510.4237)">
			<stop  offset="2.000000e-02" style="stop-color:#B54E0F"/>
			<stop  offset="9.000000e-02" style="stop-color:#C8661F"/>
			<stop  offset="0.17" style="stop-color:#DB7E2F"/>
			<stop  offset="0.26" style="stop-color:#E88F3A"/>
			<stop  offset="0.35" style="stop-color:#F09A41"/>
			<stop  offset="0.47" style="stop-color:#F39D43"/>
		</linearGradient>
		<path class="st3" d="M152,236.3c0.3-2.4,3.2-4.1,6.6-3.7c3.4,0.4,5.9,2.6,5.6,5s-3.2,4.1-6.6,3.7C154.3,241,151.7,238.8,152,236.3
			z"/>
	</g>
	<g>
		
			<linearGradient id="SVGID_5_" gradientUnits="userSpaceOnUse" x1="-389.7233" y1="744.626" x2="-389.7233" y2="780.6085" gradientTransform="matrix(0.92 -0.4 0.4 0.92 155.3939 -697.3253)">
			<stop  offset="2.000000e-02" style="stop-color:#B54E0F"/>
			<stop  offset="5.000000e-02" style="stop-color:#C15D19"/>
			<stop  offset="9.000000e-02" style="stop-color:#D37428"/>
			<stop  offset="0.15" style="stop-color:#E18734"/>
			<stop  offset="0.21" style="stop-color:#EB933D"/>
			<stop  offset="0.29" style="stop-color:#F19B42"/>
			<stop  offset="0.47" style="stop-color:#F39D43"/>
			<stop  offset="0.74" style="stop-color:#F29B42"/>
			<stop  offset="0.83" style="stop-color:#EC943D"/>
			<stop  offset="0.9" style="stop-color:#E38936"/>
			<stop  offset="0.95" style="stop-color:#D6782B"/>
			<stop  offset="1" style="stop-color:#C6631D"/>
		</linearGradient>
		<path class="st4" d="M119,172.6c-39.7-5.8-27-23.8-27-23.8"/>
		
			<linearGradient id="SVGID_6_" gradientUnits="userSpaceOnUse" x1="-221.9092" y1="775.3964" x2="-213.3659" y2="775.3964" gradientTransform="matrix(0.131 0.9019 1.2713 -0.1541 -865.4347 463.9289)">
			<stop  offset="2.000000e-02" style="stop-color:#B54E0F"/>
			<stop  offset="9.000000e-02" style="stop-color:#C8661F"/>
			<stop  offset="0.17" style="stop-color:#DB7E2F"/>
			<stop  offset="0.26" style="stop-color:#E88F3A"/>
			<stop  offset="0.35" style="stop-color:#F09A41"/>
			<stop  offset="0.47" style="stop-color:#F39D43"/>
		</linearGradient>
		<path class="st5" d="M91.3,143.2c2.3-0.2,4.4,1.4,4.6,3.5c0.2,2.2-1.5,4.1-3.9,4.3c-2.3,0.2-4.4-1.4-4.6-3.5
			C87.3,145.3,89,143.4,91.3,143.2z"/>
	</g>
	<g>
		
			<linearGradient id="SVGID_7_" gradientUnits="userSpaceOnUse" x1="-1531.6982" y1="-61.7351" x2="-1531.6982" y2="-19.9404" gradientTransform="matrix(-0.99 0.14 -0.14 -0.99 -1343.5798 352.191)">
			<stop  offset="2.000000e-02" style="stop-color:#B54E0F"/>
			<stop  offset="5.000000e-02" style="stop-color:#C15D19"/>
			<stop  offset="9.000000e-02" style="stop-color:#D37428"/>
			<stop  offset="0.15" style="stop-color:#E18734"/>
			<stop  offset="0.21" style="stop-color:#EB933D"/>
			<stop  offset="0.29" style="stop-color:#F19B42"/>
			<stop  offset="0.47" style="stop-color:#F39D43"/>
			<stop  offset="0.74" style="stop-color:#F29B42"/>
			<stop  offset="0.83" style="stop-color:#EC943D"/>
			<stop  offset="0.9" style="stop-color:#E38936"/>
			<stop  offset="0.95" style="stop-color:#D6782B"/>
			<stop  offset="1" style="stop-color:#C6631D"/>
		</linearGradient>
		<path class="st6" d="M162.2,159.1c38,16.6,29.8,35.2,29.8,35.2"/>
		
			<linearGradient id="SVGID_8_" gradientUnits="userSpaceOnUse" x1="-708.827" y1="-256.1048" x2="-700.2836" y2="-256.1048" gradientTransform="matrix(0.1149 -0.9041 -1.2662 -0.1915 -51.2576 -492.1362)">
			<stop  offset="2.000000e-02" style="stop-color:#B54E0F"/>
			<stop  offset="9.000000e-02" style="stop-color:#C8661F"/>
			<stop  offset="0.17" style="stop-color:#DB7E2F"/>
			<stop  offset="0.26" style="stop-color:#E88F3A"/>
			<stop  offset="0.35" style="stop-color:#F09A41"/>
			<stop  offset="0.47" style="stop-color:#F39D43"/>
		</linearGradient>
		<path class="st7" d="M187.6,195.3c0.4-2.1,2.6-3.5,4.9-3.1s3.8,2.5,3.5,4.6c-0.4,2.1-2.6,3.5-4.9,3.1
			C188.8,199.5,187.2,197.4,187.6,195.3z"/>
	</g>
	<g>
		<path class="st8" d="M182.6,138.7c-5.5,48.8-34.3,85.2-54.8,82.9c-17.7-1.9-23.1-32-23.1-90.9c0-55.8,28.6-50.9,40.1-50.9
			C170,79.8,188,90.3,182.6,138.7z"/>
		<path class="st9" d="M154.6,207.3c-8.6,1.8-17,1.8-18-0.3v-0.2c0,0,10.9,0.7,20-2.3"/>
		<path class="st9" d="M182.8,136c-5.4,2.3-11.4,2.5-12.7,0.2L170,136c0,0,7.7,1.1,13.1-2.8"/>
		<path class="st9" d="M107,106.4c9.6,6.7,25,8.2,31.3,4.6l0,0c-10.9,0.4-21.6-2.8-30.5-9"/>
		<path class="st10" d="M181.3,103.4c-10.6,4-23.3,3.8-24.6,1.3v-0.2c0,0,12.6,2,23.7-3.9"/>
		<path class="st10" d="M108.1,191.1c5.5,5.4,15.5,7.2,20,5.4l0.1-0.2c0,0-12.8-2-20.6-8.8"/>
		<path class="st10" d="M174,174.7c-11.7,3-23.3,3.8-24.6,1.3v-0.2c8.7-0.2,17.4-1.7,25.7-4.6"/>
		<path class="st9" d="M105.2,158.3c6.9,4.5,13.4,6.2,15.2,4.2l0.1-0.2c-5.6-1.2-10.8-3.8-15.2-7.6"/>
		<path class="st11" d="M115.6,88.6c0.4,1.3,1.1,2.5,2.1,3.4c1,0.9,2.1,1.6,3.3,2.1c2.5,1,5.1,1.6,7.8,1.9
			c5.4,0.5,10.9,0.6,16.3,0.4c5.5,0,11,0.6,16.4,0.7c2.7,0.1,5.4,0,8.1-0.5c1.3-0.2,2.5-0.7,3.6-1.5c1.1-0.8,1.8-2.1,1.9-3.4
			c0,0.7-0.1,1.4-0.4,2c-0.3,0.7-0.7,1.2-1.2,1.7c-1.1,0.9-2.4,1.6-3.7,2c-2.7,0.7-5.5,1.1-8.3,1.1c-5.5,0.1-11-0.3-16.4-0.4
			c-2.7,0-5.5,0.1-8.2,0c-2.8-0.1-5.5-0.3-8.3-0.8c-2.8-0.4-5.5-1.2-8-2.5c-1.3-0.7-2.4-1.6-3.3-2.6C116.4,91.3,115.8,90,115.6,88.6
			z"/>
		<path class="st10" d="M135.7,119.1c7.4,6.4,35.5,5.3,36.5,1.7v-0.2c0,0-19.1,2.7-36.5-1.7"/>
		<path class="st10" d="M118.1,178.3c6.2,8.7,32.5,9.3,33.8,4.7v-0.2c0,0-18.2,2.1-33.8-4.7"/>
		<g>
			<path class="st12" d="M133.7,151.5c-1,0.9-1.5,2.9-2.7,2.6c-1.1-0.4-1.9-2.2-1.4-3.9c0.5-1.6,1.9-2.6,3-2.3
				S135,150.4,133.7,151.5z"/>
			<g>
				<path class="st13" d="M131,153.2c-0.2-1.9,0.1-3,1.9-4.7"/>
				<path class="st14" d="M131.1,153.2c-0.1-0.8-0.1-1.6,0.2-2.3c0.4-0.9,1-1.7,1.7-2.3c0.1-0.1,0-0.2-0.1-0.1
					c-0.7,0.6-1.3,1.4-1.7,2.3c-0.3,0.8-0.3,1.6-0.2,2.5C130.9,153.3,131.1,153.3,131.1,153.2L131.1,153.2z"/>
			</g>
		</g>
		<circle class="st15" cx="119.8" cy="136.4" r="3.4"/>
		<g>
			<circle class="st15" cx="155.4" cy="139.4" r="3.4"/>
			<circle class="st16" cx="153.7" cy="139.1" r="1.2"/>
		</g>
		<circle class="st16" cx="117.8" cy="136.4" r="1.2"/>
		<path class="st17" d="M142.3,144.5c-0.4,1.5-1.1,2.8-2.1,4c-0.6,0.7-1.4,1.2-2.3,1.3l-0.3,0.1c0.2,0,0,0,0,0H137
			c-0.2,0,0.1,0-0.1,0l-0.3-0.1c-0.2-0.1-0.4-0.1-0.6-0.2c-0.4-0.2-0.8-0.4-1.2-0.7c-0.4-0.3-0.8-0.7-1.2-1.1
			c-1-1.2-1.5-2.7-1.4-4.3c0-0.5-0.4-1-1-1c-0.5,0-1,0.4-1,1c-0.1,3.2,1.7,6.2,4.5,7.6c2.1,1,4.5,0.6,6.2-0.9
			c1.5-1.4,2.5-3.2,3.1-5.2C144.6,143.8,142.7,143.3,142.3,144.5L142.3,144.5z"/>
		
			<linearGradient id="SVGID_9_" gradientUnits="userSpaceOnUse" x1="134.8793" y1="196.4866" x2="155.8759" y2="196.4866" gradientTransform="matrix(1 0 0 -1 7.305503e-03 283.8988)">
			<stop  offset="0.3" style="stop-color:#934923"/>
			<stop  offset="0.44" style="stop-color:#964C22"/>
			<stop  offset="0.56" style="stop-color:#A0561D"/>
			<stop  offset="0.66" style="stop-color:#B06715"/>
			<stop  offset="0.75" style="stop-color:#C77E0A"/>
			<stop  offset="0.82" style="stop-color:#DC9300"/>
			<stop  offset="0.85" style="stop-color:#DB8804"/>
			<stop  offset="0.92" style="stop-color:#D86E0C"/>
			<stop  offset="0.97" style="stop-color:#D7640F"/>
		</linearGradient>
		<path class="st18" d="M155.6,88.9c0,0.5-0.3,1-0.7,1.3c-0.4,0.3-0.9,0.5-1.4,0.6c-1,0.3-2,0.5-3,0.6c-2,0.3-4,0.4-6,0.5
			c-2,0.1-4-0.1-6-0.4c-1-0.1-2-0.5-2.8-1.1c-0.4-0.3-0.7-0.8-0.7-1.4c0-0.5,0.1-1,0.3-1.5c0.9-1.9,2.5-3.3,4.5-4
			c1.9-0.7,4-0.9,6-0.6c2,0.2,4,0.7,5.8,1.5c0.9,0.4,1.7,1,2.5,1.7C155,86.9,155.5,87.9,155.6,88.9z M155.6,88.9
			c-0.1-1-0.6-1.9-1.4-2.5c-0.8-0.6-1.6-1.1-2.5-1.5c-1.8-0.7-3.8-1.1-5.7-1.2c-2-0.3-3.9-0.1-5.8,0.5c-1.9,0.6-3.4,1.8-4.4,3.5
			c-0.2,0.4-0.3,0.9-0.4,1.4c0,0.5,0.2,0.9,0.6,1.2c0.8,0.6,1.7,0.9,2.7,1.1c2,0.3,4,0.3,5.9,0.1l6-0.3c1,0,2-0.2,3-0.4
			c0.5-0.1,0.9-0.3,1.3-0.6C155.2,89.8,155.5,89.4,155.6,88.9L155.6,88.9z"/>
		
			<linearGradient id="SVGID_10_" gradientUnits="userSpaceOnUse" x1="140.0263" y1="196.3846" x2="150.7289" y2="196.3846" gradientTransform="matrix(1 0 0 -1 7.305503e-03 283.8988)">
			<stop  offset="6.000000e-02" style="stop-color:#934923"/>
			<stop  offset="8.000000e-02" style="stop-color:#974C22"/>
			<stop  offset="0.2" style="stop-color:#B15E19"/>
			<stop  offset="0.33" style="stop-color:#C36A14"/>
			<stop  offset="0.47" style="stop-color:#CE7210"/>
			<stop  offset="0.62" style="stop-color:#D2740F"/>
		</linearGradient>
		<path class="st19" d="M150.7,88.3c0,1.2-2.3,1.3-5.7,1.5c-2.8,0.2-5-0.2-5-1.4c0-1.2,1.7-3.2,5.1-3
			C149.1,85.5,150.7,87.1,150.7,88.3z"/>
		<g>
			<g>
				<g>
					<path class="st20" d="M152,68.3c-4.9,6.6-9.4,17.5-6.3,17.1c2.8-0.3,9.3-3.5,14.9-9.5c5.5-6,6.9-14.6,4.3-15.9
						C162.6,58.8,156.9,61.7,152,68.3z"/>
					<path class="st21" d="M152,68.3c-1.7,2.4-3.3,5-4.6,7.6c-0.7,1.3-1.2,2.7-1.7,4.1c-0.6,1.4-0.9,2.8-0.9,4.3
						c0,0.3,0.1,0.7,0.4,0.9c0.3,0.2,0.6,0,1,0c0.7-0.2,1.4-0.4,2.1-0.7c1.4-0.6,2.7-1.3,3.9-2.1c2.5-1.5,4.9-3.4,7-5.4
						c2.2-2,3.9-4.4,5.1-7.1c0.6-1.3,1.1-2.7,1.4-4.2c0.3-1.4,0.3-2.9,0-4.3c-0.1-0.7-0.6-1.2-1.3-1.4c-0.7-0.1-1.4-0.1-2.1,0.1
						c-1.4,0.4-2.7,1.1-3.9,1.9C155.9,63.8,153.8,65.9,152,68.3z M152,68.3c1.7-2.4,3.8-4.6,6.2-6.4c1.2-0.9,2.5-1.6,4-2.1
						c0.7-0.3,1.6-0.3,2.3-0.2c0.8,0.2,1.4,0.8,1.7,1.6c0.4,1.5,0.4,3,0,4.5c-0.3,1.5-0.8,2.9-1.4,4.2c-1.3,2.7-3.1,5.2-5.3,7.2
						c-2.2,2.1-4.5,3.9-7.1,5.4c-1.3,0.8-2.6,1.5-4,2c-0.7,0.3-1.4,0.5-2.1,0.7c-0.4,0.1-0.8,0.1-1.2,0c-0.3-0.3-0.5-0.6-0.5-1.1
						c0.1-1.5,0.4-3,1-4.4c0.5-1.4,1.1-2.7,1.8-4.1C148.7,73.2,150.2,70.7,152,68.3L152,68.3z"/>
				</g>
				<path class="st22" d="M151.9,78.5c0.4-0.4,0.9-0.7,1.4-0.9c0.5-0.2,1.1-0.3,1.7-0.3c0.6,0,1.1,0.1,1.7,0.3c0.5,0.2,1,0.6,1.4,1
					l0,0c-0.5-0.3-1-0.5-1.5-0.6c-0.5-0.2-1-0.3-1.5-0.4c-0.5-0.1-1.1,0-1.6,0.1C152.9,78,152.4,78.2,151.9,78.5L151.9,78.5z"/>
				<path class="st23" d="M152.3,71.6c0.4,0.4,0.7,1,0.9,1.6c0.1,0.6,0.2,1.2,0.1,1.8c-0.1,0.6-0.2,1.2-0.4,1.8
					c-0.2,0.6-0.5,1.1-0.9,1.5c0.3-0.5,0.5-1.1,0.6-1.6c0.2-0.6,0.3-1.1,0.3-1.7C153.1,73.8,152.9,72.6,152.3,71.6z"/>
				<path class="st23" d="M156.2,74.1c0.4-0.4,0.8-0.8,1.4-1c0.5-0.2,1.1-0.3,1.7-0.3c0.6,0.1,1.1,0.2,1.6,0.4c0.5,0.2,1,0.5,1.4,1
					c-0.5-0.3-1-0.5-1.5-0.6c-0.5-0.2-1-0.3-1.6-0.3c-0.5,0-1,0-1.6,0.1C157.1,73.6,156.6,73.8,156.2,74.1z"/>
				<path class="st22" d="M157.5,66.1c0.4,0.5,0.7,1,0.8,1.6c0.1,0.6,0.2,1.2,0.2,1.8c0,0.6-0.1,1.2-0.3,1.8c-0.2,0.6-0.5,1.1-1,1.5
					l0,0c0.2-0.5,0.4-1.1,0.5-1.7c0.2-0.6,0.3-1.1,0.4-1.7C158.4,68.3,158.2,67.1,157.5,66.1L157.5,66.1z"/>
				<path class="st23" d="M163.2,63.5c-0.3,1-0.6,2-1,3c-0.4,1-0.9,1.9-1.5,2.8c-1.1,1.8-2.3,3.5-3.8,5.1c-1.4,1.6-3,3-4.7,4.3
					c-0.8,0.7-1.7,1.3-2.6,1.9c-0.4,0.3-0.9,0.5-1.4,0.8c-0.4,0.3-0.9,0.5-1.5,0.6c0.9-0.5,1.8-1.1,2.5-1.8c0.8-0.7,1.6-1.3,2.3-2
					c1.5-1.4,3-2.9,4.4-4.4C159,70.7,161.4,67.3,163.2,63.5z"/>
			</g>
			<g>
				<path class="st20" d="M142.9,63.5c3.4,10.1,4.5,25.4,0.8,23.6c-3.3-1.5-10-8.2-14.5-17.7c-4.5-9.5-2.6-20.7,1.1-21.3
					C133.6,47.5,139.5,53.4,142.9,63.5z"/>
				<path class="st21" d="M142.9,63.4c1.2,3.7,2.1,7.4,2.6,11.3c0.3,1.9,0.5,3.8,0.6,5.8c0.2,2,0,3.9-0.5,5.8
					c-0.1,0.5-0.5,1-1.1,1.2c-0.3,0.1-0.5,0-0.8-0.1c-0.2-0.1-0.4-0.2-0.7-0.3c-0.8-0.5-1.6-1.1-2.3-1.7c-1.5-1.3-2.8-2.6-4.1-4.1
					c-2.5-2.9-4.7-6.1-6.5-9.6c-1.9-3.4-3.1-7.1-3.6-11c-0.2-1.9-0.2-3.9,0-5.8c0.2-2,0.8-3.9,1.8-5.6c0.3-0.4,0.7-0.8,1.2-1.1
					c0.2-0.1,0.5-0.2,0.8-0.3c0.3,0,0.5,0,0.8,0c1,0.1,2,0.5,2.8,1.2c1.6,1.2,2.9,2.6,4,4.2C140,56.4,141.7,59.8,142.9,63.4z
					 M142.8,63.4c-1.2-3.7-3-7.1-5.3-10.2c-1.1-1.5-2.5-2.9-4-4c-0.7-0.5-1.6-0.9-2.5-1c-0.9-0.1-1.7,0.4-2.2,1.2
					c-1,1.6-1.6,3.4-1.7,5.3c-0.2,1.9-0.2,3.8,0,5.7c0.4,3.8,1.6,7.5,3.4,10.9c1.8,3.4,3.9,6.6,6.4,9.5c1.2,1.5,2.6,2.8,4,4.1
					c0.7,0.6,1.5,1.2,2.3,1.7c0.4,0.2,0.8,0.5,1.2,0.4c0.4-0.2,0.7-0.5,0.9-0.9c0.5-1.8,0.7-3.7,0.6-5.6c-0.1-1.9-0.2-3.8-0.5-5.7
					C144.8,70.9,144,67.1,142.8,63.4L142.8,63.4z"/>
			</g>
			<path class="st24" d="M138.8,76.2c-0.4-0.5-1-1-1.5-1.4c-0.6-0.4-1.2-0.6-1.9-0.8c-0.7-0.2-1.3-0.2-2-0.3c-0.7,0-1.4,0-2.1,0.2
				c0.6-0.4,1.3-0.6,2.1-0.7c0.7-0.1,1.5,0,2.2,0.1c0.7,0.2,1.4,0.5,2,1C138.1,74.9,138.6,75.5,138.8,76.2z"/>
			<path class="st23" d="M141.1,67.4c-0.5,0.5-1,1.1-1.4,1.8c-0.3,0.7-0.6,1.4-0.7,2.1c-0.2,0.7-0.3,1.5-0.3,2.2
				c-0.1,0.8,0,1.6,0.1,2.3c-0.3-0.7-0.5-1.5-0.5-2.3c-0.1-0.8,0-1.6,0.2-2.3c0.2-0.8,0.5-1.5,0.9-2.2
				C139.8,68.3,140.4,67.8,141.1,67.4z"/>
			<path class="st22" d="M135.3,69c-0.4-0.6-0.9-1.1-1.4-1.5c-0.6-0.4-1.2-0.7-1.9-0.8c-0.7-0.1-1.4-0.2-2.1-0.2
				c-0.7,0-1.4,0.1-2.1,0.2l0,0c0.6-0.4,1.3-0.6,2.1-0.7c0.7-0.1,1.5,0,2.2,0.2C133.4,66.7,134.6,67.6,135.3,69L135.3,69z"/>
			<path class="st24" d="M136.9,58.5c-0.5,0.5-1,1.1-1.4,1.8c-0.3,0.7-0.6,1.4-0.7,2.1c-0.2,0.7-0.3,1.5-0.3,2.2
				c-0.1,0.8-0.1,1.6,0,2.3c-0.3-0.7-0.5-1.5-0.5-2.3c-0.1-0.8,0-1.6,0.2-2.3c0.2-0.8,0.5-1.5,0.9-2.2
				C135.6,59.4,136.2,58.8,136.9,58.5z"/>
			<path class="st22" d="M131,53c0.6,5.3,2.1,10.6,4.4,15.5c1.1,2.5,2.3,4.8,3.6,7.2c0.7,1.2,1.4,2.3,2.1,3.5
				c0.4,0.6,0.7,1.2,1.2,1.7l0.6,0.8c0.2,0.2,0.4,0.6,0.7,0.7c-0.6-0.3-1.1-0.8-1.6-1.3c-0.5-0.5-0.9-1-1.4-1.5
				c-0.9-1.1-1.7-2.2-2.4-3.3c-1.5-2.3-2.8-4.7-3.9-7.2c-1.1-2.5-2-5.1-2.6-7.8C131.1,58.5,130.9,55.8,131,53z"/>
			<g>
				<path class="st20" d="M157.7,65.7c-2.9,11.9-10.7,26.8-13,22.4c-2-3.9-4.2-15.2-2.6-27.3c1.6-12.2,9.8-21.1,13.4-18.8
					C158.8,44,160.7,53.8,157.7,65.7z"/>
				<path class="st21" d="M157.8,65.7c-1.1,4.3-2.5,8.5-4.3,12.5c-0.9,2-1.9,4-3,5.9c-0.6,1-1.2,1.9-1.8,2.8
					c-0.4,0.4-0.7,0.9-1.2,1.2c-0.4,0.4-0.9,0.7-1.5,0.9c-0.3,0.1-0.6,0-0.9-0.2c-0.2-0.2-0.4-0.4-0.6-0.7c-0.2-0.5-0.5-1-0.7-1.5
					c-0.4-1-0.7-2.1-1-3.2c-0.5-2.2-0.9-4.3-1.2-6.5c-0.5-4.4-0.6-8.8-0.2-13.3c0.2-4.4,1.3-8.8,3.2-12.8c1-2,2.2-3.9,3.7-5.7
					c0.7-0.9,1.5-1.6,2.3-2.3c0.9-0.8,2-1.2,3.1-1.4c0.6-0.1,1.3,0.1,1.8,0.4c0.2,0.2,0.5,0.4,0.7,0.6l0.6,0.7c0.6,1,1.1,2,1.4,3.1
					c0.6,2.1,0.9,4.4,1,6.6C159.4,57,158.9,61.4,157.8,65.7z M157.8,65.7c1-4.3,1.4-8.7,1.2-13.1c-0.1-2.2-0.5-4.3-1.1-6.4
					c-0.3-1-0.8-2-1.4-2.9l-0.5-0.6c-0.2-0.2-0.4-0.3-0.6-0.5c-0.4-0.2-0.9-0.3-1.4-0.3c-1,0.2-2,0.6-2.8,1.3
					c-0.9,0.7-1.6,1.4-2.3,2.2c-1.4,1.7-2.6,3.5-3.5,5.5c-1.9,4-3,8.3-3.2,12.6c-0.4,4.4-0.3,8.8,0.1,13.2c0.2,2.2,0.6,4.4,1.1,6.5
					c0.3,1.1,0.6,2.1,0.9,3.2c0.2,0.5,0.4,1,0.6,1.5c0.1,0.2,0.3,0.4,0.5,0.6c0.2,0.1,0.4,0.2,0.7,0.1c1-0.4,1.8-1.1,2.4-2
					c0.7-0.9,1.3-1.8,1.9-2.7c1.1-1.9,2.2-3.8,3.1-5.8C155.2,74.1,156.6,69.9,157.8,65.7L157.8,65.7z"/>
			</g>
			<path class="st23" d="M146.8,74.3c-0.1-0.8-0.3-1.6-0.6-2.4c-0.3-0.7-0.7-1.5-1.2-2.1c-0.5-0.7-1-1.3-1.6-1.8
				c-0.3-0.3-0.6-0.5-1-0.8c-0.3-0.3-0.7-0.5-1.1-0.7c0.9,0.2,1.7,0.5,2.3,1.1c0.7,0.5,1.3,1.1,1.9,1.8c0.5,0.7,0.9,1.5,1.2,2.3
				C147,72.6,147,73.4,146.8,74.3z"/>
			<path class="st22" d="M153.9,68c-0.8,0-1.6,0.1-2.3,0.5c-0.8,0.3-1.4,0.8-2,1.4c-0.5,0.6-1,1.2-1.5,1.9c-0.5,0.7-0.9,1.4-1.2,2.1
				l0,0c0.1-0.8,0.4-1.6,0.9-2.3c0.4-0.7,1-1.4,1.6-1.9c0.6-0.6,1.3-1.1,2.1-1.4C152.3,68,153.1,67.9,153.9,68L153.9,68z"/>
			<path class="st22" d="M147.2,65.4c0.1-0.8,0.1-1.7,0-2.5c-0.1-0.8-0.4-1.6-0.8-2.3c-0.4-0.7-0.9-1.4-1.4-2
				c-0.5-0.7-1.1-1.2-1.8-1.7l0,0c0.8,0.3,1.5,0.8,2.1,1.5c0.6,0.6,1,1.4,1.4,2.1c0.4,0.8,0.6,1.6,0.7,2.5
				C147.5,63.8,147.4,64.6,147.2,65.4L147.2,65.4z"/>
			<path class="st24" d="M155.4,56.6c-0.8,0.1-1.6,0.3-2.3,0.6c-0.7,0.4-1.3,0.8-1.9,1.4c-0.6,0.6-1.1,1.2-1.5,1.8
				c-0.2,0.3-0.5,0.7-0.7,1c-0.2,0.3-0.4,0.7-0.6,1.1c0.1-0.8,0.4-1.6,0.8-2.3c0.4-0.7,0.9-1.4,1.5-2c0.6-0.6,1.3-1.1,2.1-1.4
				C153.7,56.4,154.6,56.4,155.4,56.6z"/>
			<path class="st23" d="M153.3,47.1c-1.4,2.8-2.5,5.7-3.3,8.8c-0.8,3-1.4,6-1.9,9.1c-0.4,3.1-0.7,6.2-0.9,9.3
				c-0.1,1.6-0.1,3.1-0.2,4.7c0,0.8,0,1.6,0,2.3c0,0.4,0,0.8,0.1,1.2c0,0.4,0.1,0.8,0.2,1.2c-0.3-0.7-0.6-1.5-0.6-2.3
				c-0.1-0.8-0.2-1.6-0.3-2.3c-0.2-1.6-0.2-3.2-0.2-4.7c0-3.2,0.2-6.3,0.6-9.5c0.4-3.1,1.2-6.2,2.2-9.2
				C150,52.5,151.5,49.6,153.3,47.1z"/>
		</g>
		<path class="st25" d="M153.7,134.1c2.1-3.2,7.9-2.6,8.8,1.3c0.1,0.5,0.5,0.9,1.1,1c0.4,0,0.7-0.2,0.8-0.6c0-0.1,0-0.1,0-0.2
			c-0.6-2.4-2.4-4.3-4.9-5c-2.6-0.9-5.6,0-7.3,2.2c-0.3,0.4-0.2,1,0.2,1.3C152.7,134.2,153.4,134.5,153.7,134.1L153.7,134.1z"/>
		<path class="st25" d="M113.9,130.6c1.1-1.7,3.1-2.5,5.1-2.1c1.6,0.2,3,1.3,3.5,2.9c0.3,1,2,0.9,1.6-0.3c-1.6-4.9-9.3-6.1-11.9-1.4
			C111.7,130.5,113.4,131.5,113.9,130.6L113.9,130.6z"/>
	</g>
</g>
</svg>
