<?xml version="1.0" encoding="utf-8"?>
<!-- Generator: Adobe Illustrator 23.0.2, SVG Export Plug-In . SVG Version: 6.00 Build 0)  -->
<svg version="1.1" id="圖層_1" xmlns="http://www.w3.org/2000/svg" xmlns:xlink="http://www.w3.org/1999/xlink" x="0px" y="0px"
	 viewBox="0 0 221.7 221.7" style="enable-background:new 0 0 221.7 221.7;" xml:space="preserve">
<style type="text/css">
	.st0{fill:none;stroke:url(#SVGID_1_);stroke-width:3.0427;stroke-miterlimit:10;}
	.st1{fill:url(#SVGID_2_);}
	.st2{fill:none;stroke:url(#SVGID_3_);stroke-width:3.0427;stroke-miterlimit:10;}
	.st3{fill:url(#SVGID_4_);}
	.st4{fill:none;stroke:url(#SVGID_5_);stroke-width:3.0427;stroke-miterlimit:10;}
	.st5{fill:none;stroke:url(#SVGID_6_);stroke-width:3.0427;stroke-miterlimit:10;}
	.st6{fill:url(#SVGID_7_);}
	.st7{fill:#96B03E;}
	.st8{fill:#6B772F;}
	.st9{fill:#7C8F2E;}
	.st10{fill:#69742F;}
	.st11{fill:#F5BD5A;}
	.st12{fill:#FADBA3;}
	.st13{fill:#40220F;}
	.st14{fill:#EB7366;}
	.st15{fill:#542A13;}
	.st16{fill:#FCF5D5;}
	.st17{fill:#EFEFEF;}
	.st18{fill:url(#SVGID_8_);}
	.st19{fill:url(#SVGID_9_);}
</style>
<title>蔬菜</title>
<g>
	<g>
		
			<linearGradient id="SVGID_1_" gradientUnits="userSpaceOnUse" x1="68.996" y1="46.9762" x2="68.996" y2="63.0069" gradientTransform="matrix(1 0 0 -1 7.802620e-03 222.1188)">
			<stop  offset="6.000000e-02" style="stop-color:#8F5C20"/>
			<stop  offset="0.14" style="stop-color:#9F6922;stop-opacity:0.94"/>
			<stop  offset="0.37" style="stop-color:#BE8326;stop-opacity:0.84"/>
			<stop  offset="0.62" style="stop-color:#C88C27;stop-opacity:0.8"/>
		</linearGradient>
		<path class="st0" d="M72.1,160.4c-6.7,4.3-5.4,14.6-5.4,14.6"/>
		
			<linearGradient id="SVGID_2_" gradientUnits="userSpaceOnUse" x1="-72.6282" y1="23.893" x2="-72.6282" y2="27.1377" gradientTransform="matrix(1.2491 -0.2297 -0.2243 -1.2196 163.046 189.7963)">
			<stop  offset="6.000000e-02" style="stop-color:#8F5C20"/>
			<stop  offset="0.19" style="stop-color:#A77023"/>
			<stop  offset="0.32" style="stop-color:#B98025"/>
			<stop  offset="0.46" style="stop-color:#C48927"/>
			<stop  offset="0.62" style="stop-color:#C88C27"/>
		</linearGradient>
		<path class="st1" d="M66.2,173.2c1.4-0.3,2.7,0.4,2.9,1.5c0.2,1.1-0.8,2.2-2.2,2.4c-1.4,0.3-2.7-0.4-2.9-1.5
			C63.8,174.6,64.8,173.5,66.2,173.2z"/>
	</g>
	<g>
		
			<linearGradient id="SVGID_3_" gradientUnits="userSpaceOnUse" x1="-784.5897" y1="-206.2891" x2="-784.5897" y2="-190.2409" gradientTransform="matrix(-0.84 0.55 -0.55 -0.84 -615.8693 433.1716)">
			<stop  offset="6.000000e-02" style="stop-color:#8F5C20"/>
			<stop  offset="0.14" style="stop-color:#9F6922;stop-opacity:0.94"/>
			<stop  offset="0.37" style="stop-color:#BE8326;stop-opacity:0.84"/>
			<stop  offset="0.62" style="stop-color:#C88C27;stop-opacity:0.8"/>
		</linearGradient>
		<path class="st2" d="M145.3,163.2c8.1-0.1,12.5,9.2,12.5,9.2"/>
		
			<linearGradient id="SVGID_4_" gradientUnits="userSpaceOnUse" x1="-771.1359" y1="-53.5315" x2="-771.1359" y2="-50.2868" gradientTransform="matrix(-1.171 0.4915 -0.4799 -1.1434 -769.8666 492.4557)">
			<stop  offset="6.000000e-02" style="stop-color:#8F5C20"/>
			<stop  offset="0.19" style="stop-color:#A77023"/>
			<stop  offset="0.32" style="stop-color:#B98025"/>
			<stop  offset="0.46" style="stop-color:#C48927"/>
			<stop  offset="0.62" style="stop-color:#C88C27"/>
		</linearGradient>
		<path class="st3" d="M157.2,170.8c1.3-0.6,2.8-0.2,3.2,0.8s-0.3,2.3-1.6,2.9s-2.8,0.2-3.2-0.8S155.9,171.3,157.2,170.8z"/>
	</g>
	
		<linearGradient id="SVGID_5_" gradientUnits="userSpaceOnUse" x1="103.5283" y1="23.4933" x2="103.5283" y2="39.8108" gradientTransform="matrix(1 0 0 -1 7.802620e-03 222.1188)">
		<stop  offset="6.000000e-02" style="stop-color:#8F5C20"/>
		<stop  offset="0.14" style="stop-color:#9F6922;stop-opacity:0.94"/>
		<stop  offset="0.37" style="stop-color:#BE8326;stop-opacity:0.84"/>
		<stop  offset="0.62" style="stop-color:#C88C27;stop-opacity:0.8"/>
	</linearGradient>
	<line class="st4" x1="103.5" y1="182.3" x2="103.5" y2="198.6"/>
	
		<linearGradient id="SVGID_6_" gradientUnits="userSpaceOnUse" x1="115.4164" y1="23.4933" x2="115.4164" y2="39.8108" gradientTransform="matrix(1 0 0 -1 7.802620e-03 222.1188)">
		<stop  offset="6.000000e-02" style="stop-color:#8F5C20"/>
		<stop  offset="0.14" style="stop-color:#9F6922;stop-opacity:0.94"/>
		<stop  offset="0.37" style="stop-color:#BE8326;stop-opacity:0.84"/>
		<stop  offset="0.62" style="stop-color:#C88C27;stop-opacity:0.8"/>
	</linearGradient>
	<line class="st5" x1="115.4" y1="182.3" x2="115.4" y2="198.6"/>
	
		<linearGradient id="SVGID_7_" gradientUnits="userSpaceOnUse" x1="110.3677" y1="38.7607" x2="110.3677" y2="45.5596" gradientTransform="matrix(1 0 0 -1 7.802620e-03 222.1188)">
		<stop  offset="6.000000e-02" style="stop-color:#8F5C20"/>
		<stop  offset="0.14" style="stop-color:#9F6922;stop-opacity:0.94"/>
		<stop  offset="0.37" style="stop-color:#BE8326;stop-opacity:0.84"/>
		<stop  offset="0.62" style="stop-color:#C88C27;stop-opacity:0.8"/>
	</linearGradient>
	<ellipse class="st6" cx="110.4" cy="179" rx="13.2" ry="4.3"/>
	<g>
		<g>
			<g>
				<path class="st7" d="M110.8,51.6c1.2,11.7,2.6,15.9,3.6,18.4c0.6,1.3,2.6-3.2,3.7-16.2c1.1-12-5.4-34.2-8.1-32.5
					C109.3,21.8,109.4,39.1,110.8,51.6z"/>
				<path class="st8" d="M110.8,51.6c0.4,4.2,1.1,8.3,1.9,12.5c0.4,2,1.1,4,1.9,6c0,0.1,0.2-0.1,0.4-0.3c0.1-0.2,0.2-0.5,0.3-0.7
					c0.2-0.5,0.3-1,0.5-1.5c0.3-1,0.5-2,0.7-3.1c0.4-2.1,0.6-4.1,0.9-6.2c0.2-2.1,0.5-4.2,0.5-6.2c0-4.2-0.4-8.4-1.2-12.5
					c-0.7-4.1-1.8-8.2-3.1-12.1c-0.4-1-0.7-2-1.1-2.9c-0.4-0.9-0.9-1.8-1.5-2.6c-0.1-0.1-0.3-0.3-0.5-0.3c-0.1,0-0.1,0-0.2,0
					c0.1-0.1,0,0,0,0.1c-0.1,0.5-0.1,1-0.2,1.5c0,1.1-0.1,2.1-0.1,3.2C109.6,34.8,110,43.2,110.8,51.6z M110.8,51.6
					c-0.5-4.2-0.8-8.4-1-12.6c-0.2-4.2-0.4-8.4-0.4-12.6c0-1.1,0-2.1,0-3.2c0-0.5,0.1-1.1,0.1-1.6c0-0.1,0-0.3,0.3-0.5
					c0.2-0.1,0.4-0.1,0.6-0.1c0.3,0.1,0.6,0.2,0.8,0.5c0.7,0.8,1.3,1.7,1.7,2.7c0.5,1,0.9,1.9,1.2,2.9c1.4,4,2.5,8.1,3.2,12.3
					c0.8,4.2,1.2,8.4,1.2,12.6c-0.2,4.2-0.8,8.4-1.7,12.5c-0.2,1-0.5,2.1-0.8,3.1c-0.2,0.5-0.3,1-0.5,1.5c-0.1,0.2-0.2,0.5-0.4,0.7
					c-0.1,0.1-0.2,0.2-0.3,0.3c-0.1,0.1-0.2,0.1-0.3,0.1c-0.1,0-0.2-0.1-0.3-0.1c-0.8-2-1.4-4-1.8-6.1
					C111.7,59.9,111.1,55.8,110.8,51.6z"/>
			</g>
			<path class="st9" d="M113.8,68.7c0.1,0.1,0.2-0.2,0.2-0.3c0-0.1,0.1-0.3,0.1-0.4c0-0.3,0.1-0.6,0.1-0.8c0-0.6,0-1.1,0.1-1.7
				c0-1.1,0-2.3,0-3.4c0-2.3-0.1-4.6-0.3-6.9c-0.2-2.3-0.4-4.6-0.6-6.9c-0.2-2.3-0.4-4.6-0.7-6.9c0.5,2.2,0.7,4.5,1,6.8
				c0.3,2.3,0.5,4.6,0.7,6.9s0.2,4.6,0.2,6.9c0,1.2,0,2.3-0.1,3.5c0,0.6-0.1,1.1-0.2,1.7c0,0.3-0.1,0.6-0.1,0.9
				c-0.1,0.3-0.1,0.3-0.1,0.4C114,68.5,113.9,68.8,113.8,68.7z"/>
			<path class="st9" d="M113.9,69.3c0.2,0.1,0.4-0.2,0.5-0.4c0.1-0.2,0.2-0.4,0.2-0.6c0.1-0.4,0.2-0.9,0.3-1.3
				c0.2-0.9,0.3-1.8,0.4-2.7c0.2-1.8,0.4-3.7,0.4-5.5c0.1-1.8,0.1-3.7,0.1-5.5c0-1.8-0.2-3.7-0.4-5.5c-0.4-3.7-0.9-7.3-1.5-11
				c-0.3-1.8-0.7-3.6-1.1-5.4c-0.4-1.8-0.9-3.6-1.6-5.3c1.4,3.4,2.5,7,3.1,10.7c0.7,3.6,1.2,7.3,1.6,11c0.2,1.9,0.4,3.7,0.4,5.6
				c0,1.9,0,3.7-0.2,5.6s-0.3,3.7-0.6,5.5c-0.1,0.9-0.3,1.8-0.6,2.7c-0.1,0.5-0.2,0.9-0.4,1.3c-0.1,0.2-0.2,0.4-0.3,0.6
				C114.3,69.1,114.3,69.4,113.9,69.3z"/>
		</g>
		<g>
			<g>
				<path class="st7" d="M122.5,67.1c-3.1,7.1-7.5,10.1-10.3,10.1c-2.2,0-3.6-6.5,1.3-14.3c4.4-6.9,17-14.3,17.6-14.3
					C132.4,48.8,126,59.2,122.5,67.1z"/>
				<path class="st9" d="M122.5,67.1c-1.2,2.9-2.9,5.5-5.1,7.7c-1.1,1.1-2.5,1.9-4,2.4c-0.4,0.1-0.8,0.2-1.2,0.2
					c-0.4,0-0.8-0.2-1.1-0.6c-0.5-0.6-0.9-1.4-1-2.2c-0.4-3.2,0.2-6.4,1.6-9.2c0.7-1.4,1.5-2.8,2.4-4c1-1.2,2-2.4,3.2-3.5
					c2.3-2.1,4.8-4,7.4-5.8c1.3-0.9,2.6-1.7,4-2.5c0.7-0.4,1.3-0.8,2.1-1.1c0.1-0.1,0.2-0.1,0.4-0.1c0.1,0,0.2,0,0.3,0
					c0.1,0,0.2,0.2,0.2,0.3c0,0.2,0,0.5-0.1,0.7c-0.1,0.4-0.3,0.7-0.4,1.1c-1.3,2.8-2.9,5.5-4.4,8.2
					C125.2,61.5,123.8,64.3,122.5,67.1z M122.5,67.1c2.4-5.7,5.6-11.1,8.1-16.7c0.2-0.3,0.3-0.7,0.4-1.1c0-0.1,0-0.3,0-0.4
					c0.1,0.1,0.1,0-0.1,0.2c-0.7,0.3-1.3,0.7-2,1.1c-1.3,0.8-2.6,1.7-3.8,2.6c-2.5,1.7-4.9,3.7-7.2,5.8c-1.1,1-2.2,2.2-3.1,3.3
					c-0.9,1.2-1.7,2.5-2.4,3.9c-1.5,2.7-2.1,5.7-1.8,8.8c0.1,0.7,0.4,1.4,0.8,2c0.2,0.3,0.5,0.4,0.9,0.5c0.4,0,0.8-0.1,1.1-0.1
					c1.5-0.4,2.8-1.2,4-2.2C119.5,72.6,121.3,70,122.5,67.1z"/>
			</g>
			<path class="st9" d="M112.6,77.2c-0.3,0-0.5-0.2-0.6-0.5c-0.1-0.3-0.2-0.5-0.2-0.8c-0.1-0.5-0.1-1.1,0-1.6
				c0.1-1.1,0.3-2.1,0.6-3.2c0.7-2.1,1.6-4,2.8-5.8c1.3-1.7,2.7-3.4,4.2-4.9c1.5-1.5,3.1-2.9,4.9-4.1c-0.8,0.7-1.6,1.4-2.4,2.1
				c-0.8,0.8-1.5,1.5-2.2,2.3c-1.5,1.5-2.8,3.2-4,4.9c-1.2,1.7-2.2,3.6-2.9,5.6c-0.4,1-0.6,2-0.8,3.1c-0.1,0.5-0.1,1-0.1,1.6
				c0,0.3,0.1,0.5,0.1,0.8C112.2,77,112.3,77.3,112.6,77.2z"/>
			<path class="st10" d="M112.2,77.3c-0.4,0-0.5-0.4-0.6-0.7c-0.1-0.3-0.2-0.6-0.3-1c-0.1-0.7-0.2-1.4-0.2-2
				c0.1-4.2,1.5-8.2,4.1-11.4c3.5-4.2,7.5-7.9,12.1-10.9c-1.1,0.8-2.2,1.6-3.2,2.6c-1,0.9-2,1.8-3,2.7c-2,1.8-3.8,3.8-5.5,5.9
				c-1.7,2.1-2.9,4.5-3.6,7.1c-0.4,1.3-0.6,2.6-0.7,4c-0.1,0.7-0.1,1.3,0,2c0,0.3,0.1,0.7,0.2,1C111.7,76.8,111.8,77.2,112.2,77.3z"
				/>
		</g>
		<g>
			<g>
				<path class="st7" d="M105.2,52.8c2.2,11.1,5.1,16.6,6.9,17.4c1.3,0.6,2-8.3-1.3-20.9c-3-11.1-11.3-25.2-11.7-25.3
					C98.3,23.8,102.8,40.4,105.2,52.8z"/>
				<path class="st9" d="M105.2,52.8c0.8,4,1.9,8,3.4,11.8c0.4,0.9,0.8,1.8,1.3,2.7c0.5,0.9,1.1,1.7,1.8,2.4
					c0.2,0.1,0.4,0.3,0.6,0.3c0.1,0,0.3-0.2,0.4-0.5c0.2-0.5,0.3-1,0.3-1.5c0.1-1,0.1-2,0.1-3c-0.2-4.1-0.8-8.1-1.7-12.1
					c-0.9-4-2.2-7.8-3.8-11.6c-1.5-3.8-3.3-7.5-5.2-11.1c-1-1.8-1.9-3.6-2.9-5.4l-0.4-0.6c0,0-0.1-0.1,0-0.1l0,0c0,0,0.1,0,0.2,0
					s0-0.1,0,0v0.2c0,0.5,0.1,1,0.2,1.5c0.2,1,0.4,2,0.6,3C101.7,36.8,103.7,44.8,105.2,52.8z M105.2,52.8c-0.8-4-1.8-8-2.7-12
					l-2.9-11.9c-0.2-1-0.5-2-0.7-3c-0.1-0.5-0.2-1-0.2-1.5v-0.2c0-0.1,0-0.1,0.2-0.4s0.3,0,0.3,0l0,0l0.1,0.1
					c0.1,0.1,0.1,0.1,0.2,0.2c0.1,0.2,0.3,0.4,0.4,0.6c1.1,1.7,2.1,3.5,3.1,5.4c1.9,3.6,3.7,7.3,5.3,11.1c1.6,3.8,2.8,7.7,3.7,11.8
					c0.9,4,1.4,8.1,1.5,12.2c0,1-0.1,2.1-0.2,3.1c-0.1,0.5-0.2,1-0.4,1.5c-0.1,0.2-0.2,0.6-0.6,0.6c-0.2,0-0.3-0.1-0.4-0.2
					c-0.1-0.1-0.2-0.1-0.3-0.2c-0.8-0.7-1.4-1.6-1.8-2.5c-0.5-0.9-0.9-1.8-1.3-2.8C107,60.8,106,56.8,105.2,52.8z"/>
			</g>
			<path class="st10" d="M111.8,68.6c0.2,0,0.1-0.2,0.2-0.3v-0.4c0-0.3,0-0.6-0.1-0.8c0-0.6-0.1-1.1-0.2-1.7
				c-0.2-1.1-0.4-2.2-0.6-3.3c-0.5-2.2-0.9-4.4-1.5-6.5c-0.6-2.1-1.3-4.3-2.1-6.4c-0.7-2.1-1.5-4.2-2.5-6.2c1,2,1.9,4,2.7,6.1
				c0.8,2.1,1.5,4.2,2.2,6.4c0.6,2.2,1.1,4.4,1.4,6.6c0.2,1.1,0.4,2.2,0.5,3.3c0,0.6,0.1,1.1,0.1,1.7c0,0.3,0,0.6,0,0.8
				c0,0.1,0,0.3,0,0.4C112,68.4,112,68.6,111.8,68.6z"/>
			<path class="st9" d="M111.6,69.6c0.1,0,0.2-0.1,0.2-0.2c0-0.1,0.1-0.2,0.1-0.3c0-0.2,0-0.4,0-0.7c0-0.5,0-0.9,0-1.3
				c0-0.9-0.1-1.8-0.2-2.7c-0.2-1.8-0.4-3.6-0.7-5.4c-0.6-3.6-1.5-7.1-2.7-10.6c-1.2-3.4-2.6-6.8-4-10.2c-0.7-1.7-1.5-3.3-2.3-5
				c-0.8-1.6-1.5-3.3-2.4-4.9c1.9,3.1,3.6,6.4,5.1,9.7c1.6,3.3,3,6.6,4.2,10.1c1.2,3.5,2,7.1,2.6,10.7c0.3,1.8,0.5,3.6,0.6,5.4
				c0.1,0.9,0.1,1.8,0.1,2.7c0,0.5,0,0.9,0,1.3c0,0.2,0,0.5-0.1,0.7c0,0.1,0,0.2-0.1,0.3C111.8,69.4,111.8,69.6,111.6,69.6z"/>
		</g>
		<g>
			<g>
				<path class="st7" d="M100.6,63.5c3.6,10.8,8.3,15.1,11,15c2.2-0.1,3.1-10.2-2.5-21.8c-4.9-10.3-18.1-21-18.6-21
					C89.3,35.9,96.5,51.5,100.6,63.5z"/>
				<path class="st9" d="M100.6,63.5c1.3,4,3.2,7.8,5.6,11.2c0.6,0.8,1.4,1.6,2.2,2.2c0.8,0.7,1.7,1.1,2.7,1.3
					c1.1,0.4,1.5-0.9,1.7-1.8c0.2-1,0.3-2,0.3-3.1c-0.1-4.1-1-8.2-2.5-12.1c-0.7-1.9-1.5-3.8-2.5-5.7c-1-1.8-2.1-3.5-3.4-5.2
					c-2.5-3.3-5.3-6.4-8.3-9.3c-1.5-1.4-3-2.9-4.6-4.2c-0.4-0.3-0.8-0.6-1.2-0.9l0,0c0,0,0.1,0,0.1,0c0,0,0-0.1,0-0.1
					c0,0.1,0,0.2,0,0.3c0,0.2,0.1,0.5,0.1,0.7c0.3,1,0.6,2,0.9,3C94.6,47.8,97.9,55.5,100.6,63.5z M100.6,63.5
					c-1.3-4-2.9-7.9-4.5-11.7s-3.3-7.7-4.8-11.6c-0.4-1-0.8-2-1.1-3c-0.1-0.3-0.1-0.5-0.2-0.8c0-0.2,0-0.3,0-0.5
					c0-0.2,0.1-0.3,0.2-0.4c0.1-0.1,0.2-0.1,0.3-0.1h0.1l0,0c0.5,0.3,0.9,0.6,1.3,0.9c1.7,1.3,3.3,2.7,4.8,4c3.1,2.9,5.9,6,8.5,9.3
					c1.3,1.7,2.4,3.5,3.4,5.4c1,1.9,1.8,3.8,2.5,5.8c1.4,4,2.2,8.2,2.2,12.5c0,1.1-0.2,2.1-0.4,3.2c-0.1,0.5-0.3,1-0.6,1.5
					c-0.2,0.3-0.4,0.4-0.7,0.6c-0.3,0.1-0.6,0.1-0.9,0c-1.1-0.3-2-0.8-2.8-1.5c-0.8-0.7-1.5-1.5-2.1-2.3
					C103.6,71.3,101.8,67.5,100.6,63.5z"/>
			</g>
			<path class="st9" d="M111,77c0.1,0,0.2-0.2,0.2-0.3c0-0.1,0-0.3,0-0.4c0-0.3,0-0.6,0-0.8c-0.1-0.6-0.2-1.1-0.4-1.7
				c-0.3-1.1-0.6-2.2-0.9-3.2c-0.7-2.2-1.5-4.3-2.5-6.3c-1-2-2.1-4-3.4-5.8c-0.6-0.9-1.3-1.8-1.9-2.8c-0.6-1-1.3-1.9-2.1-2.7
				c1.6,1.6,3.1,3.3,4.3,5.2c1.3,1.8,2.5,3.8,3.5,5.8c0.9,2.1,1.7,4.2,2.4,6.4c0.3,1.1,0.6,2.2,0.8,3.3c0.1,0.6,0.2,1.1,0.2,1.7
				c0,0.3,0,0.6,0,0.9c0,0.1,0,0.3-0.1,0.4C111.3,76.8,111.2,77,111,77z"/>
			<path class="st8" d="M110.8,78.1c0.2,0,0.3-0.4,0.3-0.6c0-0.2,0.1-0.5,0.1-0.7c0-0.5,0-0.9,0-1.3c0-0.9-0.1-1.9-0.3-2.8
				c-0.3-1.8-0.7-3.6-1.1-5.4c-1-3.6-2.4-7-4.3-10.2c-2-3.1-4.2-6.1-6.6-8.9c-1.2-1.4-2.4-2.8-3.7-4.2c-1.2-1.4-2.5-2.8-3.9-4
				c5.8,4.7,10.8,10.4,14.8,16.7c1.9,3.3,3.3,6.8,4.2,10.4c0.4,1.8,0.8,3.7,0.9,5.5c0.1,0.9,0.1,1.9,0.1,2.8c0,0.5,0,0.9-0.1,1.3
				c0,0.2-0.1,0.5-0.1,0.7C111.1,77.8,111,78.1,110.8,78.1z"/>
		</g>
	</g>
	<path class="st11" d="M160.6,132c0,26.1-22,48.6-49.2,48.6s-50.3-21.1-50.3-47.3c0-20.6,15.7-38.9,31.6-46.3
		c8.3-3.8-2.1-13.2,18.7-14.4c17.8-1.1,10.5,10.4,21.5,15.7C149.9,96.2,160.7,113.3,160.6,132z"/>
	<path class="st12" d="M107.4,74.3c-0.1,4.8-0.4,9.6-1,14.3c-1.1,9.1-2.8,18.5-6.6,26.9c-2.1,4.2-3.7,8.6-4.7,13.2
		c-0.8,4.6-1.1,9.2-0.8,13.9c1.2,12.8,5,25.2,11.2,36.5c0.5,0.9,3.4,0,2.7-1.2c-5.8-10.1-9.4-21.3-10.8-32.9
		c-1.3-9.5,0.2-19.1,4.2-27.7c4-8.2,6-17.3,7.2-26.3c0.8-5.7,1.3-11.3,1.3-17.1C110.4,72.6,107.4,73.3,107.4,74.3L107.4,74.3z"/>
	<path class="st12" d="M105.2,75.8c-0.8,5.6-2.2,11.1-4.2,16.4c-1.6,4.8-3.9,9.4-6.7,13.6c-1.4,2.1-3.1,4-5,5.8
		c-2,1.8-3.7,3.8-5.1,6.1c-5.1,8.1-6.6,17.9-4.2,27.2c2.2,8.3,6,16,11.3,22.7c2.9,4,6.1,7.6,9.6,11c0.4,0.3,1.7-0.2,1.3-0.6
		c-2.9-2.7-5.5-5.6-7.9-8.7c-5.3-6.4-9.4-13.8-12.1-21.7c-2.9-9.1-2.7-18.8,1.9-27.5c1.3-2.7,3.1-5.2,5.2-7.4
		c1.8-1.6,3.4-3.3,4.9-5.1c2.9-3.8,5.3-8,7-12.5c2.6-6.3,4.4-12.9,5.4-19.6C106.6,75.1,105.2,75.4,105.2,75.8L105.2,75.8z"/>
	<path class="st12" d="M103,76.4c-0.8,2.7-1.8,5.3-3,7.8c-2.1,4.6-4.8,9.4-8.8,12.6c-4.8,3.8-9.8,7.3-13.8,12
		c-3.3,3.9-5.8,8.5-7.2,13.4c-2.8,9.4-2.1,19.6,2,28.5c3.4,7.1,8.2,13.3,14.1,18.5c3.2,3,6.7,5.6,10.4,7.8c0.2,0.1,0.7-0.2,0.5-0.3
		c-3.1-1.8-5.9-3.8-8.6-6.2c-5.9-4.8-10.8-10.7-14.5-17.4c-4.6-8.5-6-18.3-4-27.8c1.1-5.4,3.4-10.5,6.7-15c4-5.2,9.1-9.1,14.3-13
		c4.2-3.1,6.9-7.8,9.1-12.5c1.4-2.8,2.5-5.7,3.4-8.6C103.5,76.1,103,76.2,103,76.4L103,76.4z"/>
	<path class="st12" d="M112.9,75.4c0,4.7,0.3,9.3,0.9,14c1.1,9.1,3,18.4,6.9,26.8c2.2,4.3,3.8,8.9,4.9,13.6c0.8,4.5,1,9.1,0.6,13.7
		c-0.7,8.2-2.7,16.3-5.9,23.9c-1.6,4.1-3.5,8-5.7,11.8c-0.3,0.5,1.1,0.3,1.2,0.3c0.5-0.1,1.4-0.3,1.7-0.8c5.8-9.8,9.6-20.7,11.1-32
		c1.3-9.2,0.6-18.8-3.2-27.3c-2.1-4.4-3.9-8.9-5.4-13.5c-1.3-4.5-2.2-9-2.9-13.6c-0.9-5.8-1.3-11.6-1.3-17.4
		C115.9,74.2,113,74.7,112.9,75.4L112.9,75.4z"/>
	<path class="st12" d="M117.1,76.2c1.2,5.8,2.9,11.5,5.3,17c2,5.1,4.6,9.9,7.6,14.4c3.2,4.8,7.2,8.9,9.7,14.1
		c7.8,16.3,0.7,33.8-10,46.9c-1.9,2.4-4,4.6-6.2,6.7c-0.7,0.7-1.3,1.3-2,1.9l-0.7,0.6c-0.8,0.6,0.4,1,1,0.6
		c8.5-7.2,15.2-16.3,19.5-26.6c3.5-8.1,4.1-17.1,1.7-25.6c-1.6-5-4.2-9.7-7.6-13.7c-3.8-4.7-7-9.8-9.6-15.2
		c-3.3-6.8-5.7-14.1-7.2-21.5C118.4,75.3,116.9,75.6,117.1,76.2L117.1,76.2z"/>
	<path class="st12" d="M119.7,75.8c2.4,7,5.8,14.5,11,20c4.3,4.6,9.4,8.4,13.5,13.1c3.7,4.1,6.4,9,7.9,14.3
		c2.7,9.3,1.9,19.2-2.1,28.1c-3.3,7-8,13.2-13.9,18.3c-3.1,2.8-6.4,5.3-10,7.4c-0.2,0.1,0.3,0,0.4,0c9.3-5.4,17.1-13.1,22.4-22.5
		c4.6-8,6.3-17.4,4.9-26.5c-0.8-5.3-2.7-10.4-5.6-14.9c-3.5-4.8-7.6-9.2-12.1-13c-2.7-2.2-5.1-4.7-7.2-7.4c-1.7-2.4-3.2-4.9-4.5-7.6
		c-1.6-3-2.9-6.2-4-9.4C120.2,75.5,119.6,75.7,119.7,75.8L119.7,75.8z"/>
	<g>
		<g>
			<ellipse class="st13" cx="90.5" cy="128.8" rx="3.9" ry="4.3"/>
			<ellipse class="st13" cx="130.9" cy="128.8" rx="3.9" ry="4.3"/>
			<path class="st13" d="M82.5,123.7c0-2.4,1.9-4.4,4.3-4.4c0,0,0.1,0,0.1,0c3.1-0.1,5.9,1.7,8.1,3.6c0.6,0.3,1.2,0.3,1.8,0
				c0.3-0.1,1.2-0.7,0.7-1.1c-3-2.6-6.8-4.6-10.9-4c-3.4,0.5-6.9,2.7-6.7,6.5C79.8,125.3,82.5,124.7,82.5,123.7L82.5,123.7z"/>
			<path class="st13" d="M141.6,122.2c0.1-3.3-2.8-5.3-5.8-5.6c-3.8-0.4-7.3,1.6-10,4c-0.3,0.2-0.3,0.7-0.1,1
				c0.1,0.1,0.3,0.2,0.4,0.3c0.7,0.2,1.5,0,2.1-0.6c1.8-1.5,4-3,6.5-2.7c2.2,0.1,3.9,1.9,3.9,4C138.6,123.9,141.5,123.4,141.6,122.2
				L141.6,122.2z"/>
			<g>
				<path class="st14" d="M113.4,135.5c0,2.7-3.3,4.9-3.3,4.9s-3.4-2.2-3.4-4.9c0.2-2.1,1.5-3.9,3.4-4.9
					C112,131.6,113.2,133.4,113.4,135.5z"/>
				<path class="st15" d="M113,135.6c-0.3,2-1.4,3.7-3.2,4.7l0.6-0.1c-1.7-1.1-3.6-3.2-3.2-5.4c0.3-1.4,1.1-2.6,2.2-3.5
					c0.2-0.1,0.3-0.3,0.5-0.4c0.4-0.2,0,0,0-0.1c0.1,0.1,0.2,0.1,0.4,0.2c0.2,0.1,0.4,0.3,0.6,0.5C112.1,132.5,112.9,134,113,135.6
					c0,0.3,0.9,0.1,0.9-0.2c-0.1-1.6-0.9-3.1-2.1-4.1c-0.3-0.3-0.7-0.6-1.2-0.8c-0.4-0.1-0.8,0-1.2,0.2c-1.2,0.7-2.1,1.8-2.7,3.1
					c-0.7,1.5-0.5,3.2,0.5,4.5c0.7,1,1.5,1.8,2.5,2.4c0.2,0.1,0.4,0,0.6-0.1c1.7-1.1,3.5-3,3.5-5.1C113.9,135.1,113,135.3,113,135.6
					z"/>
			</g>
		</g>
		<circle class="st16" cx="132.3" cy="129.4" r="1.7"/>
		<circle class="st17" cx="91.9" cy="129.6" r="1.7"/>
	</g>
	
		<linearGradient id="SVGID_8_" gradientUnits="userSpaceOnUse" x1="-105.024" y1="75.1682" x2="-105.024" y2="78.3168" gradientTransform="matrix(1.68 0 0 -1.24 278.2173 294.04)">
		<stop  offset="6.000000e-02" style="stop-color:#8F5C20"/>
		<stop  offset="0.19" style="stop-color:#A77023"/>
		<stop  offset="0.32" style="stop-color:#B98025"/>
		<stop  offset="0.46" style="stop-color:#C48927"/>
		<stop  offset="0.62" style="stop-color:#C88C27"/>
	</linearGradient>
	<ellipse class="st18" cx="101.8" cy="198.7" rx="3.4" ry="2"/>
	
		<linearGradient id="SVGID_9_" gradientUnits="userSpaceOnUse" x1="-722.038" y1="75.1682" x2="-722.038" y2="78.3168" gradientTransform="matrix(-1.68 0 0 -1.24 -1095.9343 294.04)">
		<stop  offset="6.000000e-02" style="stop-color:#8F5C20"/>
		<stop  offset="0.19" style="stop-color:#A77023"/>
		<stop  offset="0.32" style="stop-color:#B98025"/>
		<stop  offset="0.46" style="stop-color:#C48927"/>
		<stop  offset="0.62" style="stop-color:#C88C27"/>
	</linearGradient>
	<ellipse class="st19" cx="117.1" cy="198.7" rx="3.4" ry="2"/>
</g>
</svg>
