<?xml version="1.0" encoding="utf-8"?>
<!-- Generator: Adobe Illustrator 23.0.2, SVG Export Plug-In . SVG Version: 6.00 Build 0)  -->
<svg version="1.1" id="圖層_1" xmlns="http://www.w3.org/2000/svg" xmlns:xlink="http://www.w3.org/1999/xlink" x="0px" y="0px"
	 viewBox="0 0 283.5 283.5" style="enable-background:new 0 0 283.5 283.5;" xml:space="preserve">
<style type="text/css">
	.st0{fill:url(#SVGID_1_);}
	.st1{fill:url(#SVGID_2_);}
	.st2{fill:url(#SVGID_3_);}
	.st3{fill:url(#SVGID_4_);}
	.st4{fill:url(#SVGID_5_);}
	.st5{fill:url(#SVGID_6_);}
	.st6{fill:url(#SVGID_7_);}
	.st7{fill:url(#SVGID_8_);}
	.st8{fill:url(#SVGID_9_);}
	.st9{fill:#793E26;}
	.st10{fill:url(#SVGID_10_);}
	.st11{fill:url(#SVGID_11_);}
	.st12{fill:url(#SVGID_12_);}
	.st13{fill:url(#SVGID_13_);}
	.st14{fill:url(#SVGID_14_);}
	.st15{fill:url(#SVGID_15_);}
	.st16{fill:url(#SVGID_16_);}
	.st17{fill:#451C0C;}
	.st18{fill:url(#SVGID_17_);}
	.st19{fill:url(#SVGID_18_);}
	.st20{fill:#F5D837;stroke:#451C0C;stroke-width:1.07;stroke-miterlimit:10;}
	.st21{fill:#F5D837;stroke:#451C0C;stroke-width:1.06;stroke-miterlimit:10;}
</style>
<title>蔬菜</title>
<g>
	<g>
		
			<linearGradient id="SVGID_1_" gradientUnits="userSpaceOnUse" x1="-1213.6434" y1="1530.3126" x2="-1194.7933" y2="1530.3126" gradientTransform="matrix(1.77 -2.98 0.41 1.06 1584.868 -5037.7397)">
			<stop  offset="0" style="stop-color:#F1C161"/>
			<stop  offset="0.18" style="stop-color:#F2B341"/>
			<stop  offset="0.57" style="stop-color:#F39800"/>
			<stop  offset="0.71" style="stop-color:#F18D00"/>
			<stop  offset="0.97" style="stop-color:#ED6F00"/>
			<stop  offset="0.97" style="stop-color:#ED6F00"/>
		</linearGradient>
		<path class="st0" d="M58.4,183.8c-5.2-3.5,1.3-8.7,11.7-16c10.4-7.3,29.5-5.8,34.4-2.9c4.9,2.9-16.5,2.4-26.8,7.8
			C65.8,178.8,63.5,187.3,58.4,183.8z"/>
		
			<linearGradient id="SVGID_2_" gradientUnits="userSpaceOnUse" x1="81.3427" y1="1128.2424" x2="99.8927" y2="1128.2424" gradientTransform="matrix(0.4427 -0.6691 0.6518 1.438 -718.3392 -1381.0261)">
			<stop  offset="0" style="stop-color:#F1C161"/>
			<stop  offset="0.18" style="stop-color:#F2B341"/>
			<stop  offset="0.57" style="stop-color:#F39800"/>
			<stop  offset="0.71" style="stop-color:#F18D00"/>
			<stop  offset="0.97" style="stop-color:#ED6F00"/>
			<stop  offset="0.97" style="stop-color:#ED6F00"/>
		</linearGradient>
		<path class="st1" d="M50.7,177c1.1-2.5,5.1-3.3,9-1.6s6.1,5.1,5,7.6c-1.1,2.5-5.1,3.3-9,1.6S49.6,179.5,50.7,177z"/>
	</g>
	<g>
		
			<linearGradient id="SVGID_3_" gradientUnits="userSpaceOnUse" x1="-1785.3848" y1="-1816.3715" x2="-1775.3047" y2="-1816.3715" gradientTransform="matrix(0.92 -4.1001 -0.79 0.13 426.9871 -6897.792)">
			<stop  offset="0" style="stop-color:#F1C161"/>
			<stop  offset="0.18" style="stop-color:#F2B341"/>
			<stop  offset="0.57" style="stop-color:#F39800"/>
			<stop  offset="0.71" style="stop-color:#F18D00"/>
			<stop  offset="0.97" style="stop-color:#ED6F00"/>
			<stop  offset="0.97" style="stop-color:#ED6F00"/>
		</linearGradient>
		<path class="st2" d="M221.4,195.3c7.1,1.6,9.3-4.9,11.4-14.9c2.2-10-11.1-21.3-17.5-23c-6.4-1.7,7.2,11.5,7.3,20.5
			C222.7,188.3,214.3,193.7,221.4,195.3z"/>
		
			<linearGradient id="SVGID_4_" gradientUnits="userSpaceOnUse" x1="-1737.8635" y1="-1304.4237" x2="-1728.9435" y2="-1304.4237" gradientTransform="matrix(0.1783 -0.9954 -0.9677 -0.1206 -732.404 -1693.2473)">
			<stop  offset="0" style="stop-color:#F1C161"/>
			<stop  offset="0.18" style="stop-color:#F2B341"/>
			<stop  offset="0.57" style="stop-color:#F39800"/>
			<stop  offset="0.71" style="stop-color:#F18D00"/>
			<stop  offset="0.97" style="stop-color:#ED6F00"/>
			<stop  offset="0.97" style="stop-color:#ED6F00"/>
		</linearGradient>
		<path class="st3" d="M212.6,190.4c0.6-2.4,4.4-3.6,8.7-2.6c4.2,1,7.2,3.7,6.7,6.1c-0.6,2.4-4.4,3.6-8.7,2.6
			C215,195.5,212.1,192.8,212.6,190.4z"/>
	</g>
	<g>
		
			<linearGradient id="SVGID_5_" gradientUnits="userSpaceOnUse" x1="-3759.5349" y1="152.8955" x2="-3686.7849" y2="152.8955" gradientTransform="matrix(-0.6 -3.000048e-02 2.000032e-02 -1 -2054.2236 240.2281)">
			<stop  offset="0" style="stop-color:#F1C161"/>
			<stop  offset="0.18" style="stop-color:#F2B341"/>
			<stop  offset="0.57" style="stop-color:#F39800"/>
			<stop  offset="0.71" style="stop-color:#F18D00"/>
			<stop  offset="0.97" style="stop-color:#ED6F00"/>
			<stop  offset="0.97" style="stop-color:#ED6F00"/>
		</linearGradient>
		<path class="st4" d="M152.3,177c71.3,14,32.4,42.5,32.4,42.5"/>
		
			<linearGradient id="SVGID_6_" gradientUnits="userSpaceOnUse" x1="-1843.2009" y1="-1033.2635" x2="-1834.3009" y2="-1033.2635" gradientTransform="matrix(-5.743934e-02 -0.8696 -1.0293 8.880707e-02 -978.3953 -1286.9172)">
			<stop  offset="0" style="stop-color:#F1C161"/>
			<stop  offset="0.18" style="stop-color:#F2B341"/>
			<stop  offset="0.57" style="stop-color:#F39800"/>
			<stop  offset="0.71" style="stop-color:#F18D00"/>
			<stop  offset="0.97" style="stop-color:#ED6F00"/>
			<stop  offset="0.97" style="stop-color:#ED6F00"/>
		</linearGradient>
		<path class="st5" d="M190.5,213.2c4.6,0,8.4,1.6,8.4,3.7c0,2.1-3.7,3.9-8.3,3.9c-4.6,0-8.4-1.6-8.4-3.7
			C182.2,215,185.9,213.2,190.5,213.2z"/>
	</g>
	<g>
		
			<linearGradient id="SVGID_7_" gradientUnits="userSpaceOnUse" x1="-3604.9998" y1="-130.3779" x2="-3663.73" y2="-102.1079" gradientTransform="matrix(-0.59 9.000145e-02 -5.000081e-02 -1 -2040.7209 411.5009)">
			<stop  offset="0" style="stop-color:#F1C161"/>
			<stop  offset="0.18" style="stop-color:#F2B341"/>
			<stop  offset="0.57" style="stop-color:#F39800"/>
			<stop  offset="0.71" style="stop-color:#F18D00"/>
			<stop  offset="0.97" style="stop-color:#ED6F00"/>
			<stop  offset="0.97" style="stop-color:#ED6F00"/>
		</linearGradient>
		<path class="st6" d="M103.5,214.8c-3.7-4.6-14-29.9,33.1-32.2C136.6,182.7,108.9,219.3,103.5,214.8z"/>
		
			<linearGradient id="SVGID_8_" gradientUnits="userSpaceOnUse" x1="-854.9594" y1="1777.8545" x2="-839.5993" y2="1786.3245" gradientTransform="matrix(8.439650e-02 -0.6256 0.7568 0.214 -1175.7419 -699.5621)">
			<stop  offset="0" style="stop-color:#F1C161"/>
			<stop  offset="0.18" style="stop-color:#F2B341"/>
			<stop  offset="0.57" style="stop-color:#F39800"/>
			<stop  offset="0.71" style="stop-color:#F18D00"/>
			<stop  offset="0.97" style="stop-color:#ED6F00"/>
			<stop  offset="0.97" style="stop-color:#ED6F00"/>
		</linearGradient>
		<path class="st7" d="M93.1,211.8c0.1-2.1,3.8-3.5,8.1-3.2c4.4,0.3,7.8,2.2,7.6,4.3c-0.1,2.1-3.8,3.5-8.1,3.2
			C96.3,215.8,92.9,213.8,93.1,211.8z"/>
	</g>
	<g>
		
			<radialGradient id="SVGID_9_" cx="-191.1103" cy="158.473" r="39.3656" gradientTransform="matrix(1.25 0 0 -1 377.7334 283.8988)" gradientUnits="userSpaceOnUse">
			<stop  offset="0" style="stop-color:#F1C161"/>
			<stop  offset="0.23" style="stop-color:#F3AC30"/>
			<stop  offset="0.34" style="stop-color:#F3A41C"/>
			<stop  offset="0.47" style="stop-color:#F39B07"/>
			<stop  offset="0.57" style="stop-color:#F39800"/>
			<stop  offset="0.77" style="stop-color:#F18D00"/>
			<stop  offset="0.96" style="stop-color:#EF7E00"/>
		</radialGradient>
		<path class="st8" d="M150.9,171.3c-52.5,17.1-51.3-51.9-37.8-70.2c11.9-16.2,20.7-28.7,39.6-22.5c0,0,25.5,8,19.8,49.3
			C169.8,147.4,150.9,171.3,150.9,171.3"/>
		<path class="st9" d="M150.9,171.4c-5.2,1.9-10.6,3-16.1,3.1c-2.8,0-5.6-0.4-8.3-1.2c-2.7-0.8-5.3-2-7.6-3.6
			c-4.5-3.4-8.1-7.9-10.2-13.1c-2.2-5.1-3.6-10.5-4.1-16.1c-0.6-5.5-0.5-11.1,0.2-16.6c0.6-5.5,2-10.9,4-16c1-2.6,2.4-5,4-7.3
			c1.6-2.2,3.3-4.4,4.9-6.6c3.4-4.3,6.8-8.7,11.1-12.1c1.1-0.9,2.2-1.7,3.4-2.4c1.2-0.7,2.5-1.3,3.8-1.8c1.3-0.5,2.7-0.9,4.1-1.1
			c1.4-0.2,2.8-0.3,4.2-0.3c2.8,0.1,5.6,0.6,8.3,1.4c2.7,0.9,5.2,2.3,7.4,4.1c4.4,3.5,7.9,8,10.2,13.2c2.3,5.1,3.6,10.6,4,16.2
			c0.4,5.5,0.2,11.1-0.7,16.6c-0.9,5.5-2.6,10.8-5,15.9c-2.3,5-4.9,9.8-7.9,14.4c-1.5,2.3-3,4.6-4.6,6.8
			C154.4,167.1,152.8,169.2,150.9,171.4l-0.1-0.1c6.4-8.8,11.8-18.3,16.2-28.3c2.2-4.9,3.6-10.1,4.4-15.5c0.7-5.3,0.9-10.7,0.5-16.1
			c-0.3-5.3-1.6-10.6-3.6-15.5c-2.1-4.9-5.3-9.2-9.4-12.6c-2-1.7-4.3-3-6.8-4c-2.5-0.9-5.1-1.4-7.8-1.6c-1.3-0.1-2.7,0-4,0.1
			c-1.3,0.2-2.6,0.5-3.9,0.9c-1.3,0.4-2.5,1-3.7,1.6c-1.2,0.7-2.3,1.4-3.4,2.2c-2.1,1.7-4.1,3.6-5.9,5.6c-1.8,2-3.5,4.2-5.2,6.3
			c-1.6,2.2-3.2,4.4-4.8,6.6c-1.5,2.2-2.8,4.6-3.7,7.2c-1.8,5.1-2.9,10.4-3.4,15.8c-0.5,5.4-0.5,10.8,0.1,16.2
			c0.5,5.4,1.8,10.6,3.8,15.6c2,5,5.3,9.3,9.5,12.6c2.1,1.6,4.5,2.8,7.1,3.6c2.6,0.8,5.2,1.3,7.9,1.3c5.4,0.1,10.9-0.7,16.1-2.3
			L150.9,171.4z"/>
	</g>
	<g>
		
			<radialGradient id="SVGID_10_" cx="-2679.4277" cy="1366.5408" r="41.6063" gradientTransform="matrix(-0.9404 0.3402 0.3402 0.9404 -2861.98 -243.4839)" gradientUnits="userSpaceOnUse">
			<stop  offset="0" style="stop-color:#F1C161"/>
			<stop  offset="0.23" style="stop-color:#F3AC30"/>
			<stop  offset="0.34" style="stop-color:#F3A41C"/>
			<stop  offset="0.47" style="stop-color:#F39B07"/>
			<stop  offset="0.57" style="stop-color:#F39800"/>
			<stop  offset="0.77" style="stop-color:#F18D00"/>
			<stop  offset="0.96" style="stop-color:#EF7E00"/>
		</radialGradient>
		<path class="st10" d="M118.4,80.9c-42.5,6.2-29.4,55.3-22.1,74c6.5,16.5,10.4,31.6,24.1,25.3l1.9-0.3
			c19.5,0.2,24.4-16.8,27.9-35.3C154.1,123.6,155,86.2,118.4,80.9"/>
		<path class="st9" d="M118.4,81c-5.4,0.8-10.5,2.7-15.2,5.6c-4.5,2.9-8.1,7.1-10.3,12c-2.2,4.9-3.4,10.3-3.5,15.7
			c-0.2,5.4,0.1,10.8,1,16.2c0.9,5.4,2.1,10.7,3.6,15.9c1.5,5.2,3.6,10.3,5.4,15.5c0.9,2.6,1.9,5.1,3,7.6c1,2.5,2.3,4.9,3.9,7.1
			c1.5,2.2,3.7,3.9,6.3,4.6c1.3,0.3,2.6,0.3,3.9,0c1.3-0.3,2.6-0.7,3.8-1.3h0.1h0.1l1.8-0.3h0.1c2.7,0,5.3-0.4,7.9-1.2
			c2.5-0.8,4.8-2.2,6.8-3.9c4-3.5,6.4-8.4,8.2-13.5c1.7-5.1,3-10.4,3.8-15.8c1-5.3,1.6-10.7,1.9-16.1c0.2-5.4-0.1-10.8-1-16.1
			c-0.8-5.3-2.6-10.4-5.3-15.1c-1.4-2.3-3-4.4-4.8-6.4c-1.9-1.9-4-3.6-6.3-5c-2.3-1.4-4.8-2.6-7.3-3.5C123.7,82.1,121,81.5,118.4,81
			l0-0.1c5.5,0.6,10.8,2.2,15.6,4.9c4.9,2.7,9,6.7,11.9,11.4c2.9,4.8,4.9,10,5.9,15.5c1,5.4,1.4,11,1.1,16.5
			c-0.2,5.5-0.8,11-1.9,16.4c-1,5.4-2.3,10.8-4.1,16c-0.9,2.6-2.1,5.2-3.5,7.5c-1.4,2.4-3.2,4.6-5.4,6.4c-2.2,1.8-4.7,3.1-7.4,3.9
			c-2.7,0.7-5.5,1.1-8.3,1h0.1l-1.9,0.3h0.1c-2.5,1.1-5.4,1.8-8.2,1.2c-2.7-0.8-5.1-2.5-6.6-4.9c-3.3-4.5-5.1-9.7-7.2-14.8l-3.1-7.6
			c-1-2.6-2-5.1-2.8-7.8c-1.7-5.2-3-10.6-3.9-16c-1-5.4-1.3-11-1-16.5c0.2-5.6,1.5-11,3.9-16.1c2.4-5.1,6.3-9.4,11.1-12.4
			c2.4-1.4,4.9-2.5,7.6-3.3c2.6-0.8,5.3-1.4,8-1.7V81z"/>
	</g>
	<g>
		
			<radialGradient id="SVGID_11_" cx="-11.9557" cy="171.5337" r="39.8838" gradientTransform="matrix(1.12 0 0 -1.04 176.4202 307.7148)" gradientUnits="userSpaceOnUse">
			<stop  offset="0" style="stop-color:#F1C161"/>
			<stop  offset="0.23" style="stop-color:#F3AC30"/>
			<stop  offset="0.34" style="stop-color:#F3A41C"/>
			<stop  offset="0.47" style="stop-color:#F39B07"/>
			<stop  offset="0.57" style="stop-color:#F39800"/>
			<stop  offset="0.77" style="stop-color:#F18D00"/>
			<stop  offset="0.96" style="stop-color:#EF7E00"/>
		</radialGradient>
		<path class="st11" d="M144.9,174.6c-22.5-25.2-15.9-51.3-3.8-70.4c10.7-16.9,18.6-29.8,35.5-23.4c0,0,25.5,8.7,17.8,51.2
			C182,200.1,144.9,174.6,144.9,174.6"/>
		<path class="st9" d="M144.8,174.7c-3.8-3.9-7.1-8.4-9.8-13.2c-1.3-2.4-2.4-5-3.4-7.6c-0.9-2.6-1.6-5.3-2-8.1
			c-0.9-5.5-0.8-11.1,0.2-16.5c1-5.4,2.8-10.7,5.2-15.7c1.2-2.5,2.5-4.9,4-7.2c1.5-2.3,3-4.6,4.4-6.9c1.4-2.3,3-4.6,4.6-6.8
			c1.6-2.3,3.3-4.4,5.1-6.4c1.8-2.1,4-3.8,6.3-5.3c2.4-1.4,5.2-2.3,8-2.5c2.8-0.1,5.6,0.3,8.2,1.2c2.7,0.9,5.2,2.3,7.4,4.1
			c2.2,1.7,4.2,3.7,5.8,6c1.6,2.3,3,4.7,4.1,7.3c1.1,2.6,1.9,5.3,2.5,8c0.6,2.7,0.9,5.5,1.1,8.3c0.3,5.5-0.1,11.1-1,16.5
			c-0.9,5.4-2.1,10.8-3.6,16.1c-1.5,5.3-3.5,10.4-6,15.4c-2.5,5-6,9.4-10.2,13c-2.2,1.7-4.6,3.1-7.3,4.1c-2.6,0.9-5.4,1.4-8.2,1.3
			C154.9,179.4,149.5,177.7,144.8,174.7l0.2-0.2c4.6,2.8,10,4.3,15.4,4.3c2.7,0,5.3-0.5,7.8-1.5c2.5-1,4.8-2.3,6.8-4.1
			c2-1.7,3.9-3.7,5.4-5.9c1.6-2.2,3-4.5,4.2-6.9c2.4-4.8,4.3-9.9,5.7-15.1c2.8-10.4,4.8-21.2,4.3-31.9c-0.2-5.3-1.3-10.6-3.3-15.5
			c-2-4.9-5.1-9.3-9.2-12.8c-2-1.7-4.3-3.1-6.8-4c-2.5-1-5.1-1.4-7.8-1.4c-2.7,0.1-5.3,0.8-7.6,2.1c-1.2,0.7-2.3,1.4-3.3,2.2
			c-1,0.9-2,1.8-2.9,2.8c-3.6,4.1-6.8,8.4-9.6,13.1c-1.4,2.3-2.9,4.6-4.2,7c-1.3,2.4-2.5,4.8-3.6,7.3c-1.1,2.5-2,5-2.8,7.5
			c-0.8,2.6-1.4,5.2-1.9,7.8c-2,10.6-0.4,21.6,4.4,31.3c2.4,4.9,5.4,9.4,8.9,13.6L144.8,174.7z"/>
	</g>
	<g>
		
			<radialGradient id="SVGID_12_" cx="-518.6387" cy="-228.9847" r="39.9187" gradientTransform="matrix(1.47 -0.4 -0.27 -1 876.7917 -298.8105)" gradientUnits="userSpaceOnUse">
			<stop  offset="0" style="stop-color:#F1C161"/>
			<stop  offset="0.23" style="stop-color:#F3AC30"/>
			<stop  offset="0.34" style="stop-color:#F3A41C"/>
			<stop  offset="0.47" style="stop-color:#F39B07"/>
			<stop  offset="0.57" style="stop-color:#F39800"/>
			<stop  offset="0.77" style="stop-color:#F18D00"/>
			<stop  offset="0.96" style="stop-color:#EF7E00"/>
		</radialGradient>
		<path class="st12" d="M165.3,188c-36.1-16.3-34.2-43.9-23.4-66.6c9.6-20,16.7-35.4,40.5-35.2c0,0,35.7-0.6,36.7,43.2
			C220.7,199.4,165.3,188,165.3,188"/>
		<path class="st9" d="M165.3,188.2c-2.9-1.2-5.7-2.5-8.4-4c-2.7-1.5-5.3-3.2-7.7-5.2c-2.5-1.9-4.7-4.1-6.7-6.6c-2-2.5-3.7-5.1-5-8
			c-1.3-2.9-2.3-5.9-2.9-9c-0.5-3.1-0.7-6.3-0.5-9.4c0.5-6.3,2-12.4,4.5-18.2c1.2-2.9,2.6-5.7,3.9-8.4c1.4-2.8,2.7-5.5,4.2-8.3
			c2.9-5.5,5.9-10.9,10.2-15.5c1.1-1.1,2.2-2.2,3.4-3.2c1.2-1,2.5-1.9,3.9-2.7c2.7-1.5,5.7-2.7,8.8-3.4c3.1-0.7,6.2-1,9.3-1.1
			c9.6,0.1,18.8,3.8,25.8,10.4c4.5,4.5,7.9,10.1,9.7,16.2c1.8,6,2.7,12.3,2.7,18.6c0.1,3.1-0.1,6.2-0.3,9.3
			c-0.2,3.1-0.6,6.2-1.2,9.3c-1,6.2-3,12.2-5.8,17.8c-2.9,5.6-7,10.5-12.1,14.2c-5.1,3.6-11,6.1-17.2,7.1c-3.1,0.5-6.2,0.8-9.3,0.8
			C171.4,189,168.4,188.8,165.3,188.2l0.1-0.2c6.1,0.9,12.3,0.7,18.3-0.6c6-1.2,11.6-3.7,16.5-7.3c2.4-1.8,4.6-4,6.5-6.3
			c1.9-2.4,3.5-4.9,4.9-7.6c2.7-5.5,4.5-11.3,5.4-17.3c0.9-6,1.3-12.1,1.2-18.2c0-6-0.9-12-2.6-17.8c-1.7-5.7-4.8-11-8.9-15.3
			c-4.3-4.2-9.5-7.3-15.3-8.9c-2.9-0.9-5.8-1.3-8.8-1.4c-3-0.1-6,0.2-9,0.7c-6,1.1-11.5,4-15.7,8.4c-4.1,4.5-7.6,9.6-10.2,15.2
			c-1.4,2.7-2.7,5.5-4,8.3c-1.3,2.8-2.5,5.6-3.5,8.5c-2.1,5.7-3.3,11.7-3.6,17.8c-0.3,6,0.7,12,3.1,17.6c2.5,5.5,6.2,10.4,10.8,14.3
			c4.7,3.9,9.8,7.3,15.3,10L165.3,188.2z"/>
	</g>
	<g>
		
			<radialGradient id="SVGID_13_" cx="-2895.7825" cy="898.3292" r="42.1" gradientTransform="matrix(-1.05 -0.51 0.57 -0.83 -3451.3955 -597.7466)" gradientUnits="userSpaceOnUse">
			<stop  offset="0" style="stop-color:#F1C161"/>
			<stop  offset="0.23" style="stop-color:#F3AC30"/>
			<stop  offset="0.34" style="stop-color:#F3A41C"/>
			<stop  offset="0.47" style="stop-color:#F39B07"/>
			<stop  offset="0.57" style="stop-color:#F39800"/>
			<stop  offset="0.77" style="stop-color:#F18D00"/>
			<stop  offset="0.96" style="stop-color:#EF7E00"/>
		</radialGradient>
		<path class="st13" d="M95.9,184.8c-31.4-7.9-28.2-53.4-19-71.3c7.8-15,19.2-30,38.9-23.5l2.1,0.7c23.1,3.7,25.9,20.9,26.8,39.4
			C145.6,150.9,140.1,186.9,95.9,184.8"/>
		<path class="st9" d="M95.8,184.8c-5.7-1.2-10.8-4-14.9-8.1c-4-4.2-7-9.3-8.6-14.8c-3.4-11-3.4-22.9-1.1-34.1
			c1.1-5.6,3.1-11.1,5.9-16.1c2.7-5,6-9.7,9.7-14c3.9-4.2,8.7-7.7,14.3-9.1c5.6-1.4,11.6-0.3,16.9,1.5H118
			c5.7,0.8,11.5,2.7,16.1,6.5c2.3,1.9,4.2,4.2,5.7,6.8c1.5,2.6,2.6,5.3,3.4,8.2c1.4,5.6,2.2,11.4,2.4,17.2
			c0.4,5.8,0.2,11.7-0.7,17.4c-0.8,5.8-2.5,11.5-5,16.8c-5.1,10.8-15.1,18.6-26.8,20.8C107.5,185,101.7,185.3,95.8,184.8l0.1-0.2
			c5.7,0.2,11.4-0.4,17-1.8c5.5-1.3,10.7-3.9,15.1-7.4c4.4-3.6,7.8-8.1,10.2-13.3c2.4-5.1,3.9-10.6,4.7-16.2c0.8-5.6,1-11.3,0.7-17
			c-0.1-5.7-0.8-11.3-2.1-16.9c-0.7-2.7-1.7-5.3-3.1-7.8c-1.4-2.4-3.1-4.6-5.2-6.5c-4.2-3.7-9.7-5.7-15.3-6.7h-0.1
			c-1.4-0.5-2.7-0.9-4-1.3c-1.3-0.4-2.7-0.7-4.1-0.8c-5.6-0.8-11.3,0.6-16,3.8c-2.3,1.6-4.4,3.4-6.3,5.6c-3.7,4.3-6.8,9-9.3,14.1
			c-2.5,5-4.3,10.4-5.2,15.9c-1.1,5.5-1.6,11.1-1.5,16.7c0,5.6,0.8,11.2,2.4,16.6c1.5,5.4,4.2,10.4,7.9,14.6
			c1.9,2.1,4.1,3.8,6.5,5.3c2.4,1.4,5,2.5,7.7,3.3L95.8,184.8z"/>
	</g>
	<g>
		
			<radialGradient id="SVGID_14_" cx="-54.6896" cy="-255.386" r="41.5824" gradientTransform="matrix(0.9694 -0.2455 -0.2455 -0.9694 113.4547 -108.5814)" gradientUnits="userSpaceOnUse">
			<stop  offset="0" style="stop-color:#F1C161"/>
			<stop  offset="0.23" style="stop-color:#F3AC30"/>
			<stop  offset="0.34" style="stop-color:#F3A41C"/>
			<stop  offset="0.47" style="stop-color:#F39B07"/>
			<stop  offset="0.57" style="stop-color:#F39800"/>
			<stop  offset="0.77" style="stop-color:#F18D00"/>
			<stop  offset="0.96" style="stop-color:#EF7E00"/>
		</radialGradient>
		<path class="st14" d="M122.4,201.7c42.9-1.9,34.7-52.1,29.3-71.4c-4.8-17-7.2-32.5-21.5-27.6l-1.8,0.1
			c-19.4-2.1-25.9,14.3-31.2,32.4C91.2,155.6,86.6,192.7,122.4,201.7"/>
		<path class="st9" d="M122.4,201.6c5.4-0.3,10.8-1.7,15.6-4.1c4.8-2.5,8.8-6.3,11.5-11c2.6-4.7,4.4-9.8,5.1-15.2
			c0.7-5.4,0.9-10.8,0.6-16.2c-0.3-5.4-1-10.8-2-16.2c-1-5.4-2.5-10.6-3.8-15.9c-0.7-2.7-1.4-5.3-2.2-7.9c-0.8-2.6-1.9-5.1-3.2-7.5
			c-1.3-2.4-3.3-4.2-5.8-5.2c-1.3-0.4-2.6-0.6-3.9-0.4c-1.3,0.2-2.6,0.5-3.9,0.9l0,0h-0.1l-1.9,0.2h-0.1c-2.7-0.3-5.4-0.1-8,0.4
			c-2.6,0.6-5,1.7-7.2,3.2c-4.3,3.1-7.2,7.8-9.5,12.6c-2.2,5-4,10.1-5.4,15.4c-1.5,5.2-2.7,10.5-3.5,15.8c-0.8,5.3-1,10.7-0.6,16.1
			c0.3,5.4,1.6,10.6,3.8,15.5c1.1,2.4,2.5,4.7,4.2,6.8c1.7,2.1,3.6,4,5.7,5.6c2.2,1.6,4.5,3,6.9,4.2
			C117.3,200,119.8,200.9,122.4,201.6v0.2c-5.4-1.1-10.5-3.3-15.1-6.4c-4.6-3.2-8.3-7.5-10.7-12.6c-2.4-5-3.8-10.5-4.3-16
			c-0.4-5.5-0.3-11.1,0.5-16.5c0.7-5.5,1.9-10.8,3.5-16.1c1.5-5.3,3.4-10.4,5.7-15.4c1.2-2.5,2.6-4.9,4.3-7.2c1.7-2.3,3.7-4.3,6-5.9
			c2.3-1.6,5-2.7,7.8-3.2c2.7-0.5,5.5-0.5,8.3-0.2h-0.1l1.9-0.1h-0.1c2.6-0.8,5.6-1.3,8.3-0.3c2.6,1.1,4.8,3,6.1,5.6
			c2.8,4.8,4.2,10.2,5.7,15.4l2.3,7.9c0.8,2.6,1.4,5.3,2,8c1.2,5.4,2,10.8,2.3,16.3c0.4,5.5,0.2,11.1-0.7,16.5
			c-0.8,5.5-2.6,10.9-5.4,15.7c-2.9,4.8-7.2,8.6-12.2,11.1c-2.5,1.2-5.1,2.1-7.9,2.6c-2.7,0.5-5.4,0.8-8.2,0.8V201.6z"/>
	</g>
	<g>
		
			<radialGradient id="SVGID_15_" cx="-512.7386" cy="-236.1147" r="39.8891" gradientTransform="matrix(1.47 -0.4 -0.27 -1 876.7917 -298.8105)" gradientUnits="userSpaceOnUse">
			<stop  offset="0" style="stop-color:#F1C161"/>
			<stop  offset="0.23" style="stop-color:#F3AC30"/>
			<stop  offset="0.34" style="stop-color:#F3A41C"/>
			<stop  offset="0.47" style="stop-color:#F39B07"/>
			<stop  offset="0.57" style="stop-color:#F39800"/>
			<stop  offset="0.77" style="stop-color:#F18D00"/>
			<stop  offset="0.96" style="stop-color:#EF7E00"/>
		</radialGradient>
		<path class="st15" d="M175.9,192.9c-36.1-16.4-34.2-43.9-23.4-66.6c9.6-20.1,16.7-35.4,40.5-35.2c0,0,35.7-0.6,36.7,43.2
			C231.3,204.3,175.9,192.9,175.9,192.9"/>
		<path class="st9" d="M175.8,193c-2.9-1.1-5.7-2.5-8.4-4c-2.7-1.5-5.3-3.2-7.7-5.2c-2.5-1.9-4.7-4.1-6.7-6.6c-2-2.5-3.7-5.1-5-8
			c-1.3-2.9-2.3-5.9-2.9-9c-0.5-3.1-0.7-6.3-0.5-9.4c0.5-6.2,2-12.4,4.5-18.1c1.2-2.9,2.6-5.7,3.9-8.4c1.4-2.8,2.7-5.5,4.2-8.3
			c2.9-5.4,5.9-10.9,10.2-15.5c1.1-1.1,2.2-2.2,3.4-3.2c1.2-1,2.5-1.9,3.9-2.7c2.7-1.6,5.7-2.7,8.8-3.4c3.1-0.7,6.2-1,9.3-1
			c3.2,0,6.3,0.4,9.4,1.2c6.2,1.6,11.9,4.7,16.4,9.2c4.5,4.5,7.9,10.1,9.7,16.2c1.8,6,2.7,12.3,2.6,18.6c0.1,3.1-0.1,6.2-0.3,9.3
			c-0.2,3.1-0.6,6.2-1.2,9.3c-1,6.2-3,12.1-5.8,17.7c-2.9,5.6-7,10.5-12.1,14.2c-5.1,3.6-11,6-17.1,7.1c-3.1,0.5-6.2,0.8-9.3,0.8
			C182,193.9,178.9,193.6,175.8,193l0.1-0.2c6.1,0.9,12.3,0.7,18.3-0.6c6-1.2,11.6-3.7,16.5-7.3c2.4-1.8,4.6-3.9,6.5-6.3
			c1.9-2.4,3.5-4.9,4.9-7.6c2.6-5.5,4.4-11.3,5.3-17.3c0.9-6,1.3-12.1,1.2-18.2c0-6-0.9-12.1-2.6-17.9c-1.7-5.7-4.8-11-8.9-15.3
			c-4.3-4.2-9.6-7.3-15.3-8.9c-2.9-0.9-5.8-1.3-8.8-1.4c-3-0.1-6,0.2-9,0.7c-6,1.1-11.5,4-15.7,8.4c-4.1,4.5-7.6,9.6-10.2,15.2
			c-1.4,2.7-2.7,5.5-4,8.3c-1.3,2.8-2.5,5.6-3.5,8.5c-2.1,5.7-3.3,11.7-3.6,17.8c-0.3,6,0.7,12,3.1,17.6c2.5,5.5,6.2,10.4,10.8,14.3
			c4.7,4,9.8,7.3,15.3,10.1L175.8,193z"/>
	</g>
	<path class="st9" d="M164.8,105.8c4.6-2.2,9.8-3.8,15.1-3.2c2.7,0.3,5.2,1,7.6,2.3c2.3,1.3,4.4,2.9,6.2,4.9c3.4,4,6.1,8.4,8.1,13.2
		c2.1,4.7,3.5,9.7,4.3,14.9c0.2,1.3,0.4,2.6,0.5,3.9s0.2,2.6,0.2,3.9l-0.1,3.9c0,1.3-0.2,2.6-0.3,3.9c-0.5,5.2-1.6,10.3-3.3,15.2
		c-0.2,0.6-0.4,1.2-0.6,1.9l-0.7,1.8c-0.5,1.2-0.9,2.4-1.5,3.6c-1.1,2.3-2.2,4.7-3.5,6.9c-2.5,4.5-5.5,8.8-8.7,12.8l-0.1-0.1
		c2.8-4.3,5.3-8.7,7.6-13.3c1.2-2.3,2.1-4.6,3.1-7c0.5-1.2,0.9-2.4,1.3-3.6l0.7-1.8c0.2-0.6,0.4-1.2,0.6-1.8l1.1-3.6l0.9-3.7
		c0.4-1.2,0.5-2.5,0.8-3.7l0.4-1.9c0.1-0.6,0.2-1.3,0.3-1.9c0.1-1.3,0.3-2.5,0.4-3.8l0.2-3.8v-3.8c0-1.3-0.1-2.5-0.2-3.8
		c-0.4-5.1-1.7-10.1-3.8-14.7l-0.8-1.7c-0.3-0.6-0.6-1.1-1-1.7l-1-1.6l-1.1-1.6c-0.7-1.1-1.5-2-2.3-3c-0.4-0.5-0.8-1-1.3-1.4
		c-0.4-0.5-0.8-1-1.3-1.4c-1.8-1.7-3.7-3.3-5.9-4.5c-2.2-1.2-4.5-2-7-2.3c-2.5-0.3-5-0.3-7.5,0.1c-2.5,0.4-5,1-7.4,1.8L164.8,105.8z
		"/>
	<path class="st9" d="M162.5,103.5c0.4-1,0.8-1.9,1.5-2.7c0.3-0.4,0.6-0.8,1-1.1c0.3-0.4,0.7-0.7,1.1-1c0.4-0.3,0.9-0.5,1.3-0.8
		c0.4-0.2,0.9-0.5,1.3-0.7c0.4-0.3,0.8-0.6,1.2-0.9c0.4-0.3,0.8-0.7,1.2-1c0.8-0.7,1.6-1.3,2.5-1.7c0.5-0.2,0.9-0.5,1.4-0.6
		c0.5-0.2,1-0.4,1.5-0.5c2-0.5,4.1-0.4,6.1,0.3v0.2c-2,0.6-3.8,1-5.5,1.6c-0.9,0.3-1.8,0.5-2.7,0.8c-0.5,0.1-0.9,0.3-1.3,0.5
		c-0.4,0.2-0.9,0.3-1.4,0.5c-0.9,0.3-1.8,0.8-2.5,1.4c-0.7,0.7-1.3,1.4-1.9,2.2c-0.6,0.7-1.3,1.4-2.1,2c-0.8,0.6-1.6,1.2-2.4,1.7
		L162.5,103.5z"/>
	<path class="st9" d="M116,90.2c2.3-0.6,4.8-0.6,7.1,0c1.2,0.3,2.3,0.8,3.4,1.2s2.2,0.8,3.4,1.1c2.3,0.8,4.4,2,6.2,3.6
		c1.8,1.6,3.1,3.8,3.7,6.1h-0.1c-1.3-1.9-2.8-3.6-4.6-5.1c-0.9-0.7-1.7-1.5-2.7-2.1s-1.9-1.3-2.9-1.9c-1-0.6-2.1-1.1-3.2-1.4
		c-0.6-0.2-1.1-0.3-1.7-0.3c-0.6-0.1-1.2-0.1-1.7-0.2C120.6,91,118.4,90.7,116,90.2L116,90.2z"/>
	
		<linearGradient id="SVGID_16_" gradientUnits="userSpaceOnUse" x1="152.2686" y1="169.7475" x2="152.2686" y2="221.2621" gradientTransform="matrix(1 0 0 -1 7.305503e-03 283.8988)">
		<stop  offset="0" style="stop-color:#2C0B09"/>
		<stop  offset="1" style="stop-color:#691617"/>
	</linearGradient>
	<path class="st16" d="M142.2,102.8c6-16,0-31.6,0-31.6s1.9-0.4,2.8,0.4c0,0-2.1-3.8-1-4.5c0.8-0.5,2-3.6,2.5-4.3
		c0.5-0.7,2.1,2.6,4.7,3.8c1.6,7.7,4.2,4.2,4.3,5.9c0.1,2.5,2.6,5,2.2,4.2c-0.4-0.8,0.8,14.3,5.3,30.7
		C165.1,115.6,136.3,118.8,142.2,102.8z"/>
	<circle class="st17" cx="167.1" cy="151.6" r="3.1"/>
	<g>
		
			<radialGradient id="SVGID_17_" cx="-2.4557" cy="149.4637" r="39.8852" gradientTransform="matrix(1.12 0 0 -1.04 176.4202 307.7148)" gradientUnits="userSpaceOnUse">
			<stop  offset="0" style="stop-color:#F1C161"/>
			<stop  offset="0.23" style="stop-color:#F3AC30"/>
			<stop  offset="0.34" style="stop-color:#F3A41C"/>
			<stop  offset="0.47" style="stop-color:#F39B07"/>
			<stop  offset="0.57" style="stop-color:#F39800"/>
			<stop  offset="0.77" style="stop-color:#F18D00"/>
			<stop  offset="0.96" style="stop-color:#EF7E00"/>
		</radialGradient>
		<path class="st18" d="M155.5,197.5c-22.5-25.2-15.9-51.3-3.8-70.4c10.7-16.9,18.6-29.8,35.5-23.4c0,0,25.5,8.7,17.8,51.2
			C192.7,223,155.5,197.5,155.5,197.5"/>
		<path class="st9" d="M155.5,197.6c-3.8-3.9-7.1-8.4-9.8-13.2c-1.3-2.4-2.4-5-3.4-7.6c-0.9-2.6-1.6-5.3-2-8.1
			c-0.9-5.5-0.8-11.1,0.2-16.6c1-5.4,2.8-10.7,5.2-15.6c1.2-2.5,2.5-4.9,4-7.2c1.5-2.3,2.9-4.6,4.4-6.9c1.5-2.3,3-4.6,4.6-6.8
			c1.6-2.3,3.3-4.4,5.1-6.4c1.9-2.1,4-3.8,6.3-5.3c2.4-1.5,5.2-2.3,8-2.5c2.8-0.1,5.6,0.3,8.3,1.2c2.7,0.9,5.2,2.3,7.4,4.1
			c2.2,1.7,4.2,3.7,5.8,6c1.6,2.3,3,4.7,4.1,7.3c1.1,2.6,1.9,5.3,2.5,8c0.6,2.7,0.9,5.5,1.1,8.3c0.3,5.5-0.1,11.1-1,16.5
			c-0.9,5.4-2.1,10.7-3.6,16c-1.5,5.3-3.5,10.4-6,15.4c-2.5,5-6,9.4-10.2,13c-2.2,1.7-4.6,3.1-7.3,4.1c-2.6,0.9-5.4,1.4-8.2,1.3
			c-5.5-0.2-10.9-1.9-15.5-5l0.1-0.2c4.6,2.8,9.9,4.3,15.3,4.4c2.7,0,5.3-0.5,7.8-1.5c2.5-1,4.8-2.3,6.8-4.1c2-1.7,3.9-3.7,5.4-5.9
			c1.6-2.2,3-4.5,4.2-6.9c2.4-4.8,4.3-9.9,5.7-15.1c2.8-10.4,4.8-21.2,4.3-31.9c-0.2-5.3-1.3-10.6-3.2-15.6c-2-4.9-5.1-9.3-9.2-12.8
			c-2-1.7-4.3-3.1-6.8-4c-2.5-1-5.1-1.4-7.8-1.4c-2.7,0.1-5.3,0.8-7.6,2.1c-1.2,0.6-2.3,1.4-3.3,2.2c-1,0.9-2,1.8-2.9,2.8
			c-3.6,4-6.8,8.4-9.6,13.1c-1.4,2.3-2.9,4.6-4.2,7c-1.3,2.4-2.5,4.8-3.6,7.3c-1.1,2.5-2,5-2.8,7.6c-0.8,2.6-1.4,5.2-1.9,7.8
			c-2,10.6-0.4,21.6,4.4,31.3c2.4,4.9,5.4,9.4,8.9,13.6L155.5,197.6z"/>
	</g>
	<g>
		<g>
			
				<radialGradient id="SVGID_18_" cx="146.1799" cy="132.1822" r="39.37" gradientTransform="matrix(1 0 0 -1 7.305503e-03 283.8988)" gradientUnits="userSpaceOnUse">
				<stop  offset="0" style="stop-color:#F1C161"/>
				<stop  offset="0.23" style="stop-color:#F3AC30"/>
				<stop  offset="0.34" style="stop-color:#F3A41C"/>
				<stop  offset="0.47" style="stop-color:#F39B07"/>
				<stop  offset="0.57" style="stop-color:#F39800"/>
				<stop  offset="0.77" style="stop-color:#F18D00"/>
				<stop  offset="0.96" style="stop-color:#EF7E00"/>
			</radialGradient>
			<path class="st19" d="M155.5,197.5c-42.1,17.1-41.1-51.9-30.4-70.2c9.5-16.2,16.6-28.7,31.8-22.5c0,0,20.4,8,15.9,49.3
				C170.7,173.6,155.5,197.5,155.5,197.5"/>
			<path class="st9" d="M155.6,197.6c-4.6,2-9.8,3.4-15,2.9c-2.6-0.3-5.1-1.1-7.4-2.3c-1.1-0.7-2.2-1.4-3.2-2.3
				c-1-0.9-1.9-1.8-2.7-2.8c-3.2-4.1-5.5-8.9-6.7-13.9c-1.3-5-2.1-10.1-2.4-15.2c-0.3-5.1-0.1-10.3,0.5-15.4
				c0.6-5.1,1.7-10.1,3.2-15c0.8-2.4,1.9-4.8,3.2-7l4-6.5c2.7-4.3,5.4-8.7,9.1-12.3c1.8-1.9,4-3.3,6.4-4.3c2.5-0.9,5.2-1.2,7.8-0.7
				c1.3,0.2,2.6,0.5,3.8,1l0.9,0.3c0.3,0.1,0.6,0.3,0.9,0.4c0.6,0.3,1.2,0.7,1.7,1c2.2,1.5,4.1,3.3,5.7,5.4
				c3.2,4.2,5.5,8.9,6.8,13.9c1.3,5,2.1,10.1,2.2,15.3c0.1,5.1-0.2,10.3-0.9,15.4c-0.8,5.1-2.2,10.1-4,14.9c-1.8,4.8-3.9,9.5-6.3,14
				c-1.2,2.3-2.4,4.5-3.7,6.7C158.4,193.3,157.1,195.5,155.6,197.6l-0.1-0.1c5-8.8,9.3-18,12.7-27.6c1.7-4.7,2.9-9.6,3.6-14.6
				c0.6-5,0.8-10,0.7-15.1c-0.1-2.5-0.3-5-0.6-7.5c-0.3-2.5-0.8-4.9-1.4-7.4c-1.2-4.8-3.3-9.4-6.3-13.4c-1.5-2-3.2-3.7-5.2-5.2
				c-0.5-0.4-1-0.7-1.5-1c-0.3-0.1-0.5-0.3-0.8-0.4l-0.9-0.3c-1.1-0.4-2.3-0.8-3.5-1c-2.4-0.5-4.9-0.4-7.3,0.4
				c-2.3,0.9-4.5,2.2-6.3,3.9c-1.8,1.8-3.5,3.7-4.9,5.7c-1.5,2-2.9,4.2-4.2,6.3c-1.3,2.2-2.6,4.4-3.8,6.6c-1.2,2.2-2.2,4.5-2.9,6.9
				c-1.4,4.8-2.4,9.8-2.8,14.8c-0.4,5-0.5,10.1-0.3,15.1c0.2,5,1,10,2.2,14.9c1.2,4.9,3.3,9.4,6.3,13.5c0.8,1,1.6,1.9,2.5,2.7
				c0.9,0.8,1.9,1.6,3,2.2c2.1,1.3,4.5,2.1,7,2.4c2.5,0.3,5,0.3,7.5-0.2c2.5-0.4,4.9-1.1,7.3-2L155.6,197.6z"/>
		</g>
		<path class="st20" d="M136.2,150.2c0,3.4-3.6,6-5.1,6.2c-0.7,0.1-5.1-2.8-5.1-6.2s3.7-6.2,5.1-6.2
			C132.5,143.9,136.2,146.8,136.2,150.2z"/>
		<path class="st17" d="M143.7,170.8c0.1-2.2,0.6-4.3,1.4-6.3c0.4-1,1-2,1.7-2.9c0.7-0.9,1.6-1.7,2.7-2.1c0.6-0.2,1.2-0.3,1.8-0.3
			c0.6,0,1.1,0.2,1.7,0.4c1,0.4,1.9,1.1,2.6,1.9c0.7,0.8,1.3,1.6,1.8,2.6c0.5,0.9,0.7,2,0.7,3c-0.4-2-1.4-3.8-3-5
			c-0.7-0.6-1.6-1.1-2.5-1.4c-0.4-0.1-0.9-0.2-1.3-0.2c-0.4,0-0.8,0.2-1.2,0.4c-1.5,0.8-2.4,2.6-2.9,4.4c-0.5,1.8-0.7,3.7-0.6,5.6
			L143.7,170.8z"/>
		<path class="st21" d="M173.5,150.2c0,3.4-3.5,6-5,6.2c-0.7,0.1-5-2.8-5-6.2s3.6-6.2,5-6.2C169.9,143.9,173.5,146.8,173.5,150.2z"
			/>
		<circle class="st17" cx="129" cy="151.5" r="3.1"/>
		<circle class="st17" cx="167.1" cy="151" r="3.1"/>
	</g>
	<path class="st17" d="M170.9,139.8c0.6-1.9,3.2-2.6,5.8-1.8c2.6,0.9,4.1,3.1,3.5,4.9"/>
	<path class="st17" d="M119.8,141.6c-0.4-1.9,1.5-3.9,4.1-4.5c2.7-0.5,5.1,0.6,5.5,2.5"/>
</g>
</svg>
